<svg xmlns="http://www.w3.org/2000/svg" width="151.473" height="169.461" viewBox="0 0 151.473 169.461">
  <g id="carousel-charger" transform="translate(0.5 0.5)">
    <path id="Path_618" data-name="Path 618" d="M180.153,120.329a2.058,2.058,0,0,0,2.058-2.058V68.135a2.058,2.058,0,0,0-2.057-2.058H118.515a2.058,2.058,0,0,0-2.058,2.058v50.136a2.057,2.057,0,0,0,2.058,2.058Zm-59.58-50.136H178.1v46.021H120.573Z" transform="translate(-91.862 -50.771)" fill="#94d034" stroke="#94d034" stroke-width="1"/>
    <path id="Path_620" data-name="Path 620" d="M169.68,141a29.477,29.477,0,1,0,0-58.954h-7.188a2.058,2.058,0,1,0,0,4.116h7.188a25.362,25.362,0,1,1,0,50.724h-37.05v-4.328h37.052a21.035,21.035,0,1,0,0-42.069l-16.555-.08V38.4a14.516,14.516,0,0,0-14.5-14.5H73.683a14.516,14.516,0,0,0-14.5,14.5V171.281H58.13a9.457,9.457,0,0,0-9.446,9.446V190.3a2.058,2.058,0,0,0,2.057,2.058H161.572a2.058,2.058,0,0,0,2.058-2.057v-9.577a9.457,9.457,0,0,0-9.447-9.446h-1.052V141Zm-72.265,3.842H80.694a1.785,1.785,0,1,1,0-3.569H97.415Zm0-16.461H80.694a1.785,1.785,0,1,1,0-3.569H97.415ZM101.53,146.9V120.206a2.072,2.072,0,0,1,2.507-2.027l20.092,4.3a5.572,5.572,0,0,1,4.383,5.42v13.844a5.572,5.572,0,0,1-4.383,5.42l-20.092,4.3a2.073,2.073,0,0,1-2.507-2.027Zm47.483,24.383H74.265a2.058,2.058,0,0,0,0,4.115h79.917a5.338,5.338,0,0,1,5.331,5.331v7.519H52.8v-7.519A5.337,5.337,0,0,1,58.13,175.4H61.24a2.058,2.058,0,0,0,2.058-2.057V38.4A10.4,10.4,0,0,1,73.683,28.014h64.946A10.4,10.4,0,0,1,149.014,38.4v81.489a2.058,2.058,0,1,0,4.115,0V94.521l16.551.08a16.919,16.919,0,1,1,0,33.838h-37.05V127.9a9.708,9.708,0,0,0-7.636-9.444l-20.094-4.3a6.188,6.188,0,0,0-7.484,6.051v.487H80.694a5.9,5.9,0,1,0,0,11.8H97.415v4.663H80.694a5.9,5.9,0,1,0,0,11.8H97.415v.487a6.183,6.183,0,0,0,7.484,6.051l20.093-4.3a9.708,9.708,0,0,0,7.637-9.444V141h16.386Z" transform="translate(-48.684 -23.9)" fill="#94d034" stroke="#94d034" stroke-width="1"/>
    <g id="bolt-white" transform="translate(49.731 26.243)">
      <path id="bolt" d="M196.284,42.269l3.365-15.193-6.166-1.22L207.588,9.087l-3.426,15.4,5.911,1.173Z" transform="translate(-193.483 -9.087)" fill="#f0dd5d" stroke="#f0dd5d" stroke-linecap="round" stroke-linejoin="round" stroke-width="2"/>
    </g>
  </g>
</svg>
