<svg id="carousel-schedule-installer" xmlns="http://www.w3.org/2000/svg" width="171.5" height="171.5" viewBox="0 0 171.5 171.5">
  <g id="Group_2640" data-name="Group 2640">
    <path id="Path_531" data-name="Path 531" d="M159.208,13.433H156.35V10.575a8.575,8.575,0,1,0-17.15,0v2.858h-5.717V10.575a8.575,8.575,0,1,0-17.15,0v2.858h-5.717V10.575a8.575,8.575,0,1,0-17.15,0v2.858H82.033V10.575a8.575,8.575,0,1,0-17.15,0v2.858H59.167V10.575a8.575,8.575,0,0,0-17.15,0v2.858H36.3V10.575a8.575,8.575,0,1,0-17.15,0v2.858H16.292A14.292,14.292,0,0,0,2,27.725v2.858a2.858,2.858,0,1,0,5.717,0V27.725a8.575,8.575,0,0,1,8.575-8.575H19.15v2.858a8.575,8.575,0,0,0,17.15,0V19.15h5.717v2.858a8.575,8.575,0,0,0,17.15,0V19.15h5.717v2.858a8.575,8.575,0,0,0,17.15,0V19.15H93.467v2.858a8.575,8.575,0,0,0,17.15,0V19.15h5.717v2.858a8.575,8.575,0,0,0,17.15,0V19.15H139.2v2.858a8.575,8.575,0,0,0,17.15,0V19.15h2.858a8.575,8.575,0,0,1,8.575,8.575V36.3h-5.717a2.858,2.858,0,1,0,0,5.717h5.717V67.742a8.575,8.575,0,0,1-8.575,8.575H144.917v-34.3h5.717a2.858,2.858,0,0,0,0-5.717H22.008a2.858,2.858,0,0,0,0,5.717H139.2V79.175a2.858,2.858,0,0,0,2.858,2.858h17.15a14.063,14.063,0,0,0,8.575-2.858V87.75H144.917V84.892a2.858,2.858,0,0,0-2.858-2.858H110.617V50.592a2.858,2.858,0,0,0-2.858-2.858h-68.6A2.858,2.858,0,0,0,36.3,50.592V82.033H7.717V42.017a2.858,2.858,0,1,0-5.717,0V153.492a2.858,2.858,0,0,0,2.858,2.858H93.467a2.858,2.858,0,1,0,0-5.717H87.75v-5.717h2.858A14.292,14.292,0,0,0,104.9,130.625a2.858,2.858,0,0,0-2.858-2.858H84.892a2.858,2.858,0,0,0-2.858,2.858v20.008H76.317V122.05H139.2v5.717H113.475a2.858,2.858,0,0,0-2.858,2.858v20.008H104.9a2.858,2.858,0,1,0,0,5.717h5.717v14.292a2.858,2.858,0,0,0,2.858,2.858h17.15a14.292,14.292,0,0,0,14.292-14.292V156.35h2.858A25.725,25.725,0,0,0,173.5,130.625V27.725a14.292,14.292,0,0,0-14.292-14.292ZM30.583,22.008a2.858,2.858,0,1,1-5.717,0V10.575A2.831,2.831,0,0,1,29.754,8.6a2.658,2.658,0,0,1,.829,1.972Zm22.867,0a2.858,2.858,0,1,1-5.717,0V10.575A2.831,2.831,0,0,1,52.621,8.6a2.658,2.658,0,0,1,.829,1.972Zm22.867,0a2.858,2.858,0,1,1-5.717,0V10.575A2.831,2.831,0,0,1,75.488,8.6a2.658,2.658,0,0,1,.829,1.972Zm28.583,0a2.858,2.858,0,1,1-5.717,0V10.575A2.831,2.831,0,0,1,104.071,8.6a2.658,2.658,0,0,1,.829,1.972Zm22.867,0a2.858,2.858,0,1,1-5.717,0V10.575A2.831,2.831,0,0,1,126.938,8.6a2.658,2.658,0,0,1,.829,1.972Zm22.867,0a2.858,2.858,0,0,1-5.717,0V10.575A2.831,2.831,0,0,1,149.8,8.6a2.658,2.658,0,0,1,.829,1.972ZM90.608,139.2H87.75v-5.717H98.7A8.575,8.575,0,0,1,90.608,139.2Zm77.175-45.733v25.725a8.575,8.575,0,0,1-8.575,8.575H144.917v-34.3ZM104.9,82.033H76.317V53.45H104.9ZM42.017,53.45H70.6V82.033H59.167a2.858,2.858,0,1,0,0,5.717H70.6v28.583H42.017V87.75h5.717a2.858,2.858,0,1,0,0-5.717H42.017ZM36.3,87.75v28.583H7.717V87.75ZM7.717,122.05H36.3v28.583H7.717Zm34.3,28.583V122.05H70.6v28.583Zm34.3-34.3V87.75H104.9v28.583Zm34.3,0V87.75H139.2v28.583ZM139.2,159.208a8.575,8.575,0,0,1-8.575,8.575H116.333v-34.3H139.2Zm8.575-8.575h-2.858v-17.15h14.292a14.063,14.063,0,0,0,8.575-2.858h0A20.008,20.008,0,0,1,147.775,150.633Z" transform="translate(-2 -2)" fill="#94d034"/>
    <path id="Path_532" data-name="Path 532" d="M23.15,30.575a8.575,8.575,0,1,0-8.575,8.575A8.575,8.575,0,0,0,23.15,30.575Zm-11.433,0a2.858,2.858,0,1,1,2.858,2.858A2.858,2.858,0,0,1,11.717,30.575Z" transform="translate(5.433 35.167)" fill="#f0dd5d"/>
    <path id="Path_533" data-name="Path 533" d="M14.575,51.15A8.575,8.575,0,1,0,6,42.575a8.575,8.575,0,0,0,8.575,8.575Zm0-11.433a2.858,2.858,0,1,1-2.858,2.858A2.858,2.858,0,0,1,14.575,39.717Z" transform="translate(5.433 57.467)" fill="#f0dd5d"/>
    <path id="Path_534" data-name="Path 534" d="M38.575,34a8.575,8.575,0,1,0,8.575,8.575A8.575,8.575,0,0,0,38.575,34Zm0,11.433a2.858,2.858,0,1,1,2.858-2.858A2.858,2.858,0,0,1,38.575,45.433Z" transform="translate(50.033 57.467)" fill="#f0dd5d"/>
    <path id="Path_535" data-name="Path 535" d="M26.575,46a8.575,8.575,0,1,0,8.575,8.575A8.575,8.575,0,0,0,26.575,46Zm0,11.433a2.858,2.858,0,1,1,2.858-2.858A2.858,2.858,0,0,1,26.575,57.433Z" transform="translate(27.733 79.767)" fill="#f0dd5d"/>
    <path id="Path_536" data-name="Path 536" d="M26.575,39.15A8.575,8.575,0,1,0,18,30.575a8.575,8.575,0,0,0,8.575,8.575Zm0-11.433a2.858,2.858,0,1,1-2.858,2.858A2.858,2.858,0,0,1,26.575,27.717Z" transform="translate(27.733 35.167)" fill="#f0dd5d"/>
    <path id="Path_537" data-name="Path 537" d="M59.15,30.575a8.575,8.575,0,1,0-8.575,8.575A8.575,8.575,0,0,0,59.15,30.575Zm-11.433,0a2.858,2.858,0,1,1,2.858,2.858A2.858,2.858,0,0,1,47.717,30.575Z" transform="translate(72.333 35.167)" fill="#f0dd5d"/>
    <path id="Path_538" data-name="Path 538" d="M52.575,50H46.858a2.858,2.858,0,1,0,0,5.717h5.717a2.858,2.858,0,0,0,0-5.717Z" transform="translate(76.05 87.2)" fill="#94d034"/>
    <path id="Path_539" data-name="Path 539" d="M52.575,54H46.858a2.858,2.858,0,1,0,0,5.717h5.717a2.858,2.858,0,0,0,0-5.717Z" transform="translate(76.05 94.633)" fill="#94d034"/>
    <path id="Path_540" data-name="Path 540" d="M62.575,18H56.858a2.858,2.858,0,0,0,0,5.717h5.717a2.858,2.858,0,1,0,0-5.717Z" transform="translate(94.633 27.733)" fill="#94d034"/>
    <path id="Path_541" data-name="Path 541" d="M62.575,22H56.858a2.858,2.858,0,0,0,0,5.717h5.717a2.858,2.858,0,1,0,0-5.717Z" transform="translate(94.633 35.167)" fill="#94d034"/>
    <path id="Path_542" data-name="Path 542" d="M56.858,41.717h5.717a2.858,2.858,0,1,0,0-5.717H56.858a2.858,2.858,0,0,0,0,5.717Z" transform="translate(94.633 61.183)" fill="#94d034"/>
    <path id="Path_543" data-name="Path 543" d="M56.858,45.717h5.717a2.858,2.858,0,1,0,0-5.717H56.858a2.858,2.858,0,0,0,0,5.717Z" transform="translate(94.633 68.617)" fill="#94d034"/>
  </g>
</svg>
