<svg xmlns="http://www.w3.org/2000/svg" width="259.042" height="202.674" viewBox="0 0 259.042 202.674">
  <g id="carousel-atomic-bolt" transform="translate(1.366 1.366)">
    <g id="Group_2639" data-name="Group 2639" transform="translate(-148.976 -333.524)">
      <g id="Ellipse_27-2" data-name="Ellipse 27-2">
        <ellipse id="Ellipse_80" data-name="Ellipse 80" cx="45" cy="122" rx="45" ry="122" transform="translate(148.976 411.466) rotate(-60)" fill="none" stroke="#f0dd5d" stroke-width="2"/>
        <ellipse id="Ellipse_81" data-name="Ellipse 81" cx="44.5" cy="121.5" rx="44.5" ry="121.5" transform="translate(149.659 411.283) rotate(-60)" fill="none" stroke="#f0dd5d" stroke-width="2"/>
      </g>
      <g id="Ellipse_28-2" data-name="Ellipse 28-2">
        <ellipse id="Ellipse_82" data-name="Ellipse 82" cx="122" cy="45" rx="122" ry="45" transform="translate(148.976 455.524) rotate(-30)" fill="none" stroke="#f0dd5d" stroke-width="2"/>
        <ellipse id="Ellipse_83" data-name="Ellipse 83" cx="121.5" cy="44.5" rx="121.5" ry="44.5" transform="translate(149.659 455.707) rotate(-30)" fill="none" stroke="#f0dd5d" stroke-width="2"/>
      </g>
    </g>
    <g id="Group_2790" data-name="Group 2790" transform="translate(-148.976 -333.524)">
      <path id="Union_2" data-name="Union 2" d="M248.255,529.8l16.832-82.56L231.9,440.191,306,347.18l-17.762,83.564,33.151,7.047Z" fill="#171f58"/>
      <path id="Union_2-2" data-name="Union 2" d="M245.778,527.312l17.762-83.564-33.187-7.054,73.168-92.007-17.763,83.564,33.151,7.047Z" fill="#94d034"/>
      <path id="Union_2-3" data-name="Union 2" d="M263.54,443.748l-33.187-7.054,73.168-92.007" fill="#d0ff00"/>
      <path id="Union_2-4" data-name="Union 2" d="M285.758,428.251l33.151,7.047-73.131,92.014" fill="#529634"/>
    </g>
    <path id="Path_794" data-name="Path 794" d="M171.909,494.245c-12.288-21.284,24.86-65.737,82.972-99.288s115.184-43.5,127.472-22.212" transform="translate(-148.976 -333.524)" fill="none" stroke="#f0dd5d" stroke-width="2"/>
    <path id="Path_795" data-name="Path 795" d="M382.353,494.245c-12.288,21.284-69.359,11.339-127.472-22.212s-95.26-78-82.972-99.288" transform="translate(-148.976 -333.524)" fill="none" stroke="#f0dd5d" stroke-width="2"/>
    <g id="Group_2791" data-name="Group 2791" transform="translate(-148.976 -333.524)">
      <g id="Union_2-5" data-name="Union 2" fill="#f0dd5d" stroke-linecap="round" stroke-linejoin="round">
        <path d="M 212.3192901611328 464.3022766113281 L 209.6777801513672 463.05712890625 L 212.4219512939453 450.1463012695312 L 208.1790618896484 449.2442321777344 L 205.8085632324219 448.740234375 L 207.3169555664062 446.8434143066406 L 219.9059600830078 431.0123901367188 L 222.5472106933594 432.2578735351562 L 219.8030395507812 445.1687927246094 L 224.0400085449219 446.0697937011719 L 226.4096527099609 446.57373046875 L 224.9022827148438 448.4703063964844 L 212.3192901611328 464.3022766113281 Z" stroke="none"/>
        <path d="M 211.1450042724609 463.3689880371094 L 223.7279968261719 447.5369873046875 L 218.0240020751953 446.3240051269531 L 221.0800018310547 431.9460144042969 L 208.4909973144531 447.7770080566406 L 214.2010040283203 448.9909973144531 L 211.1450042724609 463.3689880371094 M 211.1437530517578 466.3692016601562 C 210.7122192382812 466.3692016601562 210.2762145996094 466.2760620117188 209.8658599853516 466.0826110839844 C 208.6065673828125 465.489013671875 207.9211120605469 464.1070556640625 208.2105560302734 462.7452697753906 L 210.6428833007812 451.3015747070312 L 207.8671112060547 450.71142578125 C 206.8507995605469 450.495361328125 206.0186614990234 449.7687683105469 205.6675109863281 448.7908935546875 C 205.3163604736328 447.81298828125 205.4962158203125 446.7230224609375 206.1429138183594 445.9097900390625 L 218.7319183349609 430.0787963867188 C 219.5983276367188 428.9892272949219 221.1004333496094 428.6387939453125 222.3595123291016 429.2325439453125 C 223.6185913085938 429.8262634277344 224.3038635253906 431.2080993652344 224.0144500732422 432.5697326660156 L 221.5820922851562 444.0135803222656 L 224.3520202636719 444.6026000976562 C 225.3681640625 444.8186950683594 226.2001800537109 445.5451049804688 226.5513610839844 446.5227966308594 C 226.9025726318359 447.5005187988281 226.7229461669922 448.5903015136719 226.0765686035156 449.4035949707031 L 213.4935760498047 465.235595703125 C 212.9096221923828 465.9703369140625 212.0364990234375 466.3692016601562 211.1437530517578 466.3692016601562 Z" stroke="none" fill="#fff"/>
      </g>
      <g id="Union_2-6" data-name="Union 2" fill="#171f58" stroke-linecap="round" stroke-linejoin="round">
        <path d="M 213.3192901611328 465.3022766113281 L 210.6777801513672 464.05712890625 L 213.4219512939453 451.1463012695312 L 209.1790618896484 450.2442321777344 L 206.8085632324219 449.740234375 L 208.3169555664062 447.8434143066406 L 220.9059600830078 432.0123901367188 L 223.5472106933594 433.2578735351562 L 220.8030395507812 446.1687927246094 L 225.0400085449219 447.0697937011719 L 227.4096527099609 447.57373046875 L 225.9022827148438 449.4703063964844 L 213.3192901611328 465.3022766113281 Z" stroke="none"/>
        <path d="M 212.1450042724609 464.3689880371094 L 224.7279968261719 448.5369873046875 L 219.0240020751953 447.3240051269531 L 222.0800018310547 432.9460144042969 L 209.4909973144531 448.7770080566406 L 215.2010040283203 449.9909973144531 L 212.1450042724609 464.3689880371094 M 212.1437530517578 467.3692016601562 C 211.7122192382812 467.3692016601562 211.2762145996094 467.2760620117188 210.8658599853516 467.0826110839844 C 209.6065673828125 466.489013671875 208.9211120605469 465.1070556640625 209.2105560302734 463.7452697753906 L 211.6428833007812 452.3015747070312 L 208.8671112060547 451.71142578125 C 207.8507995605469 451.495361328125 207.0186614990234 450.7687683105469 206.6675109863281 449.7908935546875 C 206.3163604736328 448.81298828125 206.4962158203125 447.7230224609375 207.1429138183594 446.9097900390625 L 219.7319183349609 431.0787963867188 C 220.5983276367188 429.9892272949219 222.1004333496094 429.6387939453125 223.3595123291016 430.2325439453125 C 224.6185913085938 430.8262634277344 225.3038635253906 432.2080993652344 225.0144500732422 433.5697326660156 L 222.5820922851562 445.0135803222656 L 225.3520202636719 445.6026000976562 C 226.3681640625 445.8186950683594 227.2001800537109 446.5451049804688 227.5513610839844 447.5227966308594 C 227.9025726318359 448.5005187988281 227.7229461669922 449.5903015136719 227.0765686035156 450.4035949707031 L 214.4935760498047 466.235595703125 C 213.9096221923828 466.9703369140625 213.0364990234375 467.3692016601562 212.1437530517578 467.3692016601562 Z" stroke="none" fill="#fff"/>
      </g>
      <path id="Union_2-7" data-name="Union 2" d="M211.145,463.369l3.056-14.378-5.71-1.214,12.589-15.831-3.056,14.378,5.7,1.213Z" fill="#94d034"/>
      <path id="Union_2-8" data-name="Union 2" d="M214.2,448.991l-5.71-1.214,12.589-15.831" fill="#d0ff00"/>
      <path id="Union_2-9" data-name="Union 2" d="M218.024,446.324l5.7,1.213-12.583,15.832" fill="#529634"/>
    </g>
    <g id="Group_2792" data-name="Group 2792" transform="translate(-148.976 -333.524)">
      <g id="Union_2-10" data-name="Union 2" fill="#f0dd5d" stroke-linecap="round" stroke-linejoin="round">
        <path d="M 354.8433227539062 378.4602661132812 L 352.2017822265625 377.2151794433594 L 354.9459228515625 364.3035583496094 L 350.7033081054688 363.4022521972656 L 348.3323059082031 362.8985595703125 L 349.8409729003906 361.0014038085938 L 362.4299621582031 345.1703796386719 L 365.0712280273438 346.4158630371094 L 362.3270874023438 359.3265380859375 L 366.5637817382812 360.2267456054688 L 368.9338684082031 360.7303466796875 L 367.4263305664062 362.6272583007812 L 354.8433227539062 378.4602661132812 Z" stroke="none"/>
        <path d="M 353.6690063476562 377.5270080566406 L 366.2520141601562 361.6940002441406 L 360.5480041503906 360.4819946289062 L 363.60400390625 346.10400390625 L 351.0150146484375 361.9349975585938 L 356.7250061035156 363.1480102539062 L 353.6690063476562 377.5270080566406 M 353.6677551269531 380.5272216796875 C 353.2362060546875 380.5272216796875 352.80029296875 380.4341125488281 352.3899230957031 380.2406616210938 C 351.130615234375 379.6470947265625 350.4451293945312 378.2651062011719 350.7345581054688 376.9033508300781 L 353.1668090820312 365.4590759277344 L 350.3916015625 364.8695068359375 C 349.3751831054688 364.6535949707031 348.5428771972656 363.9270629882812 348.1916198730469 362.9490966796875 C 347.8403625488281 361.9711608886719 348.0201721191406 360.881103515625 348.6669311523438 360.0677795410156 L 361.2559204101562 344.2367858886719 C 362.1223449707031 343.1471862792969 363.6244506835938 342.7968139648438 364.8835144042969 343.3905334472656 C 366.1426086425781 343.9842529296875 366.8278503417969 345.3660888671875 366.5384521484375 346.7277221679688 L 364.106201171875 358.1710815429688 L 366.8755493164062 358.759521484375 C 367.8917846679688 358.9754638671875 368.7239685058594 359.7018127441406 369.0752868652344 360.6795349121094 C 369.4266052246094 361.6572875976562 369.2470397949219 362.7471923828125 368.6006469726562 363.5605163574219 L 356.0176391601562 379.3935546875 C 355.4337158203125 380.1282958984375 354.5605163574219 380.5272216796875 353.6677551269531 380.5272216796875 Z" stroke="none" fill="#fff"/>
      </g>
      <g id="Union_2-11" data-name="Union 2" fill="#171f58" stroke-linecap="round" stroke-linejoin="round">
        <path d="M 355.8433227539062 379.4602661132812 L 353.2017822265625 378.2151794433594 L 355.9459228515625 365.3035583496094 L 351.7033081054688 364.4022521972656 L 349.3323059082031 363.8985595703125 L 350.8409729003906 362.0014038085938 L 363.4299621582031 346.1703796386719 L 366.0712280273438 347.4158630371094 L 363.3270874023438 360.3265380859375 L 367.5637817382812 361.2267456054688 L 369.9338684082031 361.7303466796875 L 368.4263305664062 363.6272583007812 L 355.8433227539062 379.4602661132812 Z" stroke="none"/>
        <path d="M 354.6690063476562 378.5270080566406 L 367.2520141601562 362.6940002441406 L 361.5480041503906 361.4819946289062 L 364.60400390625 347.10400390625 L 352.0150146484375 362.9349975585938 L 357.7250061035156 364.1480102539062 L 354.6690063476562 378.5270080566406 M 354.6677551269531 381.5272216796875 C 354.2362060546875 381.5272216796875 353.80029296875 381.4341125488281 353.3899230957031 381.2406616210938 C 352.130615234375 380.6470947265625 351.4451293945312 379.2651062011719 351.7345581054688 377.9033508300781 L 354.1668090820312 366.4590759277344 L 351.3916015625 365.8695068359375 C 350.3751831054688 365.6535949707031 349.5428771972656 364.9270629882812 349.1916198730469 363.9490966796875 C 348.8403625488281 362.9711608886719 349.0201721191406 361.881103515625 349.6669311523438 361.0677795410156 L 362.2559204101562 345.2367858886719 C 363.1223449707031 344.1471862792969 364.6244812011719 343.7968139648438 365.8835144042969 344.3905334472656 C 367.1426086425781 344.9842529296875 367.8278503417969 346.3660888671875 367.5384521484375 347.7277221679688 L 365.106201171875 359.1710815429688 L 367.8755493164062 359.759521484375 C 368.8917846679688 359.9754638671875 369.7239685058594 360.7018127441406 370.0752868652344 361.6795349121094 C 370.4266052246094 362.6572875976562 370.2470397949219 363.7471923828125 369.6006469726562 364.5605163574219 L 357.0176391601562 380.3935546875 C 356.4337158203125 381.1282958984375 355.5605163574219 381.5272216796875 354.6677551269531 381.5272216796875 Z" stroke="none" fill="#fff"/>
      </g>
      <path id="Union_2-12" data-name="Union 2" d="M353.669,377.527l3.056-14.379-5.71-1.213L363.6,346.1l-3.056,14.378,5.7,1.212Z" fill="#d0ff00"/>
      <path id="Union_2-13" data-name="Union 2" d="M356.725,363.148l-5.71-1.213L363.6,346.1" fill="#d0ff00"/>
      <path id="Union_2-14" data-name="Union 2" d="M360.548,360.482l5.7,1.212-12.583,15.833" fill="#529634"/>
    </g>
  </g>
</svg>
