<svg id="carousel-certified" xmlns="http://www.w3.org/2000/svg" width="175.153" height="177.781" viewBox="0 0 175.153 177.781">
  <g id="Group_2650" data-name="Group 2650">
    <path id="Path_568" data-name="Path 568" d="M143.2,128.607a26.164,26.164,0,0,0,26.273-26.273V93.577a2.919,2.919,0,1,0-5.838,0v8.758A20.309,20.309,0,0,1,143.2,122.769H132.986v5.838ZM23.807,81.9A14.64,14.64,0,0,0,11.838,70.515V23.223A15.407,15.407,0,0,0,23.807,11.838H140.284a14.64,14.64,0,0,0,11.969,11.385V70.515A15.407,15.407,0,0,0,140.284,81.9l-12.845.292,5.547,5.547h9.925a2.758,2.758,0,0,0,2.919-2.919c0-4.963,4.379-8.758,9.342-8.758a2.758,2.758,0,0,0,2.919-2.919V20.6a2.758,2.758,0,0,0-2.919-2.919,9.3,9.3,0,0,1-9.342-8.758A2.758,2.758,0,0,0,142.911,6H21.18a2.758,2.758,0,0,0-2.919,2.919c0,4.963-4.379,8.758-9.342,8.758A2.758,2.758,0,0,0,6,20.6V73.142a2.758,2.758,0,0,0,2.919,2.919,9.3,9.3,0,0,1,9.342,8.758,2.758,2.758,0,0,0,2.919,2.919H84.819l2.043-5.547Z" transform="translate(5.677 5.677)" fill="#94d034"/>
    <path id="Path_569" data-name="Path 569" d="M131.85,2H20.919A2.758,2.758,0,0,0,18,4.919a2.758,2.758,0,0,0,2.919,2.919H131.85a8.6,8.6,0,0,1,8.758,8.758V89.577a2.919,2.919,0,1,0,5.838,0V16.6A14.454,14.454,0,0,0,131.85,2Z" transform="translate(28.708 -2)" fill="#94d034"/>
    <path id="Path_570" data-name="Path 570" d="M28.273,136.284H69.142a2.919,2.919,0,0,0,0-5.838H29.149c-9.05,0-21.31-5.547-21.31-20.435V16.6A8.6,8.6,0,0,1,16.6,7.838H39.95a2.758,2.758,0,0,0,2.919-2.919A2.758,2.758,0,0,0,39.95,2H16.6A14.454,14.454,0,0,0,2,16.6v93.415C2,131.322,21.267,136.284,28.273,136.284Z" transform="translate(-2 -2)" fill="#94d034"/>
    <path id="Path_571" data-name="Path 571" d="M14.919,29.515H99.577A2.758,2.758,0,0,0,102.5,26.6a2.758,2.758,0,0,0-2.919-2.919H17.838V20.758a2.758,2.758,0,0,1,2.919-2.919h99.254a2.758,2.758,0,0,1,2.919,2.919v2.919H111.254a2.758,2.758,0,0,0-2.919,2.919,2.758,2.758,0,0,0,2.919,2.919h14.6a2.758,2.758,0,0,0,2.919-2.919V20.758A8.6,8.6,0,0,0,120.011,12H20.758A8.6,8.6,0,0,0,12,20.758V26.6A2.758,2.758,0,0,0,14.919,29.515Z" transform="translate(17.192 17.192)" fill="#94d034"/>
    <path id="Path_572" data-name="Path 572" d="M87.465,20H34.919A2.758,2.758,0,0,0,32,22.919a2.758,2.758,0,0,0,2.919,2.919H87.465a2.758,2.758,0,0,0,2.919-2.919A2.758,2.758,0,0,0,87.465,20Z" transform="translate(55.577 32.546)" fill="#94d034"/>
    <path id="Path_573" data-name="Path 573" d="M87.465,24H34.919A2.758,2.758,0,0,0,32,26.919a2.758,2.758,0,0,0,2.919,2.919H87.465a2.758,2.758,0,0,0,2.919-2.919A2.758,2.758,0,0,0,87.465,24Z" transform="translate(55.577 40.223)" fill="#94d034"/>
    <path id="Path_574" data-name="Path 574" d="M20.758,20A8.6,8.6,0,0,0,12,28.758a8.6,8.6,0,0,0,8.758,8.758,8.6,8.6,0,0,0,8.758-8.758A8.6,8.6,0,0,0,20.758,20Zm0,11.677a2.758,2.758,0,0,1-2.919-2.919,2.758,2.758,0,0,1,2.919-2.919,2.758,2.758,0,0,1,2.919,2.919A2.758,2.758,0,0,1,20.758,31.677Z" transform="translate(17.192 32.546)" fill="#94d034"/>
    <path id="Path_575" data-name="Path 575" d="M46.273,20H22.919A2.758,2.758,0,0,0,20,22.919a2.758,2.758,0,0,0,2.919,2.919H46.273a2.758,2.758,0,0,0,2.919-2.919A2.758,2.758,0,0,0,46.273,20Z" transform="translate(32.546 32.546)" fill="#94d034"/>
    <path id="Path_576" data-name="Path 576" d="M46.273,24H22.919A2.758,2.758,0,0,0,20,26.919a2.758,2.758,0,0,0,2.919,2.919H46.273a2.758,2.758,0,0,0,2.919-2.919A2.758,2.758,0,0,0,46.273,24Z" transform="translate(32.546 40.223)" fill="#94d034"/>
    <path id="Path_577" data-name="Path 577" d="M46.273,27.9H22.919A2.758,2.758,0,0,0,20,30.819a2.758,2.758,0,0,0,2.919,2.919H46.273a2.758,2.758,0,0,0,2.919-2.919A2.758,2.758,0,0,0,46.273,27.9Z" transform="translate(32.546 47.708)" fill="#94d034"/>
    <g id="Group_2647" data-name="Group 2647" transform="translate(79.293 79.111)">
      <path id="Path_579" data-name="Path 579" d="M50.22,63.841a13.72,13.72,0,0,1,0-27.441c7.59,0,14.012,5.838,14.012,13.428A14.207,14.207,0,0,1,50.22,63.841Zm0-21.894a7.882,7.882,0,0,0,0,15.764,7.887,7.887,0,1,0,0-15.764Z" transform="translate(-15.08 -15.09)" fill="#f0dd5d"/>
      <path id="Path_580" data-name="Path 580" d="M48.539,88.93a3.066,3.066,0,0,1-2.627-1.46l-3.795-7.3-8.758,4.671a2.872,2.872,0,0,1-4.087-3.5L40.365,51.272a2.955,2.955,0,1,1,5.547,2.043L37.446,75.793l4.379-2.335a2.577,2.577,0,0,1,3.795,1.168l2.335,4.087,8.758-23.938a2.955,2.955,0,1,1,5.547,2.043L51.166,86.594a2.767,2.767,0,0,1-2.627,2.335Z" transform="translate(-29.162 9.74)" fill="#f0dd5d"/>
      <path id="Path_581" data-name="Path 581" d="M55.841,88.93h0a2.557,2.557,0,0,1-2.627-2.043L42.12,57.11a2.955,2.955,0,0,1,5.547-2.043L56.424,79l2.335-4.087c.876-1.46,2.627-2.043,3.795-1.168l4.379,2.335-8.466-22.77a2.955,2.955,0,0,1,5.547-2.043L75.107,81.048a3.294,3.294,0,0,1-.876,3.211,2.655,2.655,0,0,1-3.211.292L62.263,79.88l-3.795,7.3A2.805,2.805,0,0,1,55.841,88.93Z" transform="translate(-4.645 9.74)" fill="#f0dd5d"/>
      <path id="Path_578" data-name="Path 578" d="M64.039,34.938c1.46,0,2.919.876,4.087,2.919a10.786,10.786,0,0,0,9.342,5.255A5.691,5.691,0,0,0,79.8,42.82a4.968,4.968,0,0,1,2.043-.292c2.919,0,4.671,2.335,3.5,5.838-1.168,4.379.876,9.633,4.963,11.677,3.795,2.043,3.795,5.838,0,7.882A10.817,10.817,0,0,0,85.349,79.6c.876,3.5-.584,5.838-3.5,5.838a5.7,5.7,0,0,1-2.043-.292,6.428,6.428,0,0,0-2.335-.292,10.786,10.786,0,0,0-9.342,5.255c-1.168,2.043-2.627,2.919-4.087,2.919s-2.919-.876-4.087-2.919a10.786,10.786,0,0,0-9.342-5.255,5.691,5.691,0,0,0-2.335.292,4.968,4.968,0,0,1-2.043.292c-2.919,0-4.671-2.335-3.5-5.838,1.168-4.379-.876-9.633-4.963-11.677-3.795-2.043-3.795-5.838,0-7.882a10.817,10.817,0,0,0,4.963-11.677c-.876-3.5.584-5.838,3.5-5.838a5.7,5.7,0,0,1,2.043.292,6.428,6.428,0,0,0,2.335.292,10.786,10.786,0,0,0,9.342-5.255c1.46-2.043,2.627-2.919,4.087-2.919m0-5.838a10.432,10.432,0,0,0-9.05,5.838A5.367,5.367,0,0,1,50.9,37.274h-.876a14.653,14.653,0,0,0-3.5-.584,9.826,9.826,0,0,0-7.882,3.795c-2.043,2.627-2.335,5.838-1.46,9.633a4.736,4.736,0,0,1-2.043,4.963c-3.795,2.043-5.838,5.255-5.838,9.05s2.043,7.006,5.838,9.05c1.46.876,2.627,3.5,2.043,4.963-.876,3.5-.584,7.006,1.46,9.633a9.826,9.826,0,0,0,7.882,3.795,14.653,14.653,0,0,0,3.5-.584H50.9a4.339,4.339,0,0,1,4.087,2.335c2.043,3.795,5.255,5.838,9.05,5.838a10.432,10.432,0,0,0,9.05-5.838,5.367,5.367,0,0,1,4.087-2.335h.876a14.653,14.653,0,0,0,3.5.584,9.826,9.826,0,0,0,7.882-3.795c2.043-2.627,2.335-5.838,1.46-9.633a4.736,4.736,0,0,1,2.043-4.963c3.795-2.043,5.838-5.255,5.838-9.05s-2.043-7.006-5.838-9.05c-1.46-.876-2.627-3.5-2.043-4.963.876-3.5.584-7.006-1.46-9.633a9.826,9.826,0,0,0-7.882-3.795,14.653,14.653,0,0,0-3.5.584h-.876a4.339,4.339,0,0,1-4.087-2.335c-2.043-3.8-5.255-5.838-9.05-5.838Z" transform="translate(-28.899 -29.1)" fill="#f0dd5d"/>
    </g>
  </g>
</svg>
