<svg xmlns="http://www.w3.org/2000/svg" width="246.666" height="167.251" viewBox="0 0 246.666 167.251">
  <g id="carousel-jobs" transform="translate(0 0.001)">
    <g id="Group_2655" data-name="Group 2655" transform="translate(12055 17176)">
      <g id="noun_document_and_paper_2063759" data-name="noun_document and paper_2063759" transform="translate(-12055 -17176)">
        <g id="_36-Document" data-name="36-Document" transform="translate(0)">
          <path id="Path_623" data-name="Path 623" d="M118.5,167.25H23.725A16.742,16.742,0,0,1,7,150.525V16.725A16.742,16.742,0,0,1,23.725,0H118.5a16.742,16.742,0,0,1,16.725,16.725v133.8A16.742,16.742,0,0,1,118.5,167.25ZM23.725,5.575a11.15,11.15,0,0,0-11.15,11.15v133.8a11.15,11.15,0,0,0,11.15,11.15H118.5a11.15,11.15,0,0,0,11.15-11.15V16.725A11.15,11.15,0,0,0,118.5,5.575Z" transform="translate(-7)" fill="#94d034"/>
          <circle id="Ellipse_43" data-name="Ellipse 43" cx="2.773" cy="2.773" r="2.773" transform="translate(10.99 89.656)" fill="#94d034"/>
          <circle id="Ellipse_44" data-name="Ellipse 44" cx="2.773" cy="2.773" r="2.773" transform="translate(22.081 89.656)" fill="#94d034"/>
          <circle id="Ellipse_45" data-name="Ellipse 45" cx="2.773" cy="2.773" r="2.773" transform="translate(33.173 89.656)" fill="#94d034"/>
          <circle id="Ellipse_46" data-name="Ellipse 46" cx="2.773" cy="2.773" r="2.773" transform="translate(44.264 89.656)" fill="#94d034"/>
          <circle id="Ellipse_47" data-name="Ellipse 47" cx="2.773" cy="2.773" r="2.773" transform="translate(55.356 89.656)" fill="#94d034"/>
          <ellipse id="Ellipse_48" data-name="Ellipse 48" cx="3.235" cy="2.773" rx="3.235" ry="2.773" transform="translate(66.447 89.656)" fill="#94d034"/>
          <circle id="Ellipse_49" data-name="Ellipse 49" cx="2.773" cy="2.773" r="2.773" transform="translate(78.463 89.656)" fill="#94d034"/>
          <circle id="Ellipse_50" data-name="Ellipse 50" cx="2.773" cy="2.773" r="2.773" transform="translate(89.554 89.656)" fill="#94d034"/>
          <circle id="Ellipse_51" data-name="Ellipse 51" cx="2.773" cy="2.773" r="2.773" transform="translate(100.646 89.656)" fill="#94d034"/>
          <circle id="Ellipse_52" data-name="Ellipse 52" cx="2.773" cy="2.773" r="2.773" transform="translate(111.737 89.656)" fill="#94d034"/>
          <path id="Path_624" data-name="Path 624" d="M103.987,42.575h-89.2a2.787,2.787,0,0,1,0-5.575h89.2a2.787,2.787,0,0,1,0,5.575Z" transform="translate(1.937 66.137)" fill="#94d034"/>
          <path id="Path_625" data-name="Path 625" d="M103.987,46.575h-89.2a2.788,2.788,0,0,1,0-5.575h89.2a2.788,2.788,0,0,1,0,5.575Z" transform="translate(1.937 73.287)" fill="#94d034"/>
          <path id="Path_626" data-name="Path 626" d="M57.512,50.575H40.787a2.787,2.787,0,1,1,0-5.575H57.512a2.787,2.787,0,0,1,0,5.575Z" transform="translate(48.412 80.437)" fill="#94d034"/>
          <circle id="Ellipse_53" data-name="Ellipse 53" cx="2.773" cy="2.773" r="2.773" transform="translate(13.762 147.887)" fill="#94d034"/>
          <circle id="Ellipse_54" data-name="Ellipse 54" cx="2.773" cy="2.773" r="2.773" transform="translate(24.854 147.887)" fill="#94d034"/>
          <circle id="Ellipse_55" data-name="Ellipse 55" cx="2.773" cy="2.773" r="2.773" transform="translate(35.945 147.887)" fill="#94d034"/>
          <path id="Path_627" data-name="Path 627" d="M37.087,58.15a7.172,7.172,0,0,1-6.032-4.028c-1.461-2.191-1.344-2.169-2.787,0a7.181,7.181,0,0,1-6.043,4.028,7.181,7.181,0,0,1-6.043-4.028c-.728-1.09-1.084-1.547-1.394-1.547a2.787,2.787,0,1,1,0-5.575,7.181,7.181,0,0,1,6.038,4.028c1.455,2.18,1.344,2.18,2.787,0A7.181,7.181,0,0,1,29.662,47a7.172,7.172,0,0,1,6.032,4.028c.728,1.093,1.082,1.547,1.394,1.547a2.788,2.788,0,0,1,0,5.575Z" transform="translate(1.937 84.012)" fill="#94d034"/>
        </g>
      </g>
      <g id="Group_2656" data-name="Group 2656" transform="translate(177.903 -893.532)">
        <path id="Path_635" data-name="Path 635" d="M-12186.854-16237.545v27.941h38.749v-27.941h8.454l-28.418-28.418-9.887,9.887v-9.887h-6.86v15.551l-12.867,12.867" fill="none" stroke="#f0dd5d" stroke-linecap="round" stroke-linejoin="round" stroke-width="5"/>
        <path id="Path_636" data-name="Path 636" d="M-12174.262-16225.486v-12.613h8.873v20.586" transform="translate(6.835 8.132)" fill="none" stroke="#f0dd5d" stroke-linecap="round" stroke-linejoin="round" stroke-width="5"/>
      </g>
    </g>
    <g id="Group_2657" data-name="Group 2657" transform="translate(12294.902 16209.25)">
      <path id="Union_6" data-name="Union 6" d="M10,30A10,10,0,0,1,0,20V10A10,10,0,0,1,10,0H90a10,10,0,0,1,10,10V20a10.021,10.021,0,0,1-.318,2.512l4.082,7.238L91.6,29.873A10.072,10.072,0,0,1,90,30Z" transform="translate(-12152 -16199)" fill="#f0dd5d"/>
      <path id="Union_8" data-name="Union 8" d="M10,30A10,10,0,0,1,0,20V10A10,10,0,0,1,10,0H90a10,10,0,0,1,10,10V20a10.021,10.021,0,0,1-.318,2.512l4.082,7.238L91.6,29.873A10.072,10.072,0,0,1,90,30Z" transform="translate(-12152 -16116)" fill="#f0dd5d"/>
      <path id="Union_7" data-name="Union 7" d="M10,30A10,10,0,0,1,0,20V10A10,10,0,0,1,10,0H90a10.067,10.067,0,0,1,1.6.128L103.764.25,99.682,7.488A10.013,10.013,0,0,1,100,10V20A10,10,0,0,1,90,30Z" transform="translate(-12088.236 -16125.625) rotate(180)" fill="#94d034"/>
      <path id="Path_637" data-name="Path 637" d="M92.151,40.392H14.429c-1.341,0-2.429-.759-2.429-1.7S13.087,37,14.429,37H92.151c1.341,0,2.429.759,2.429,1.7S93.493,40.392,92.151,40.392Z" transform="translate(-12154.848 -16228.113)" fill="#fff"/>
      <path id="Path_642" data-name="Path 642" d="M92.151,40.392H14.429c-1.341,0-2.429-.759-2.429-1.7S13.087,37,14.429,37H92.151c1.341,0,2.429.759,2.429,1.7S93.493,40.392,92.151,40.392Z" transform="translate(-12154.848 -16144.195)" fill="#fff"/>
      <path id="Path_640" data-name="Path 640" d="M92.151,40.392H14.429c-1.341,0-2.429-.759-2.429-1.7S13.087,37,14.429,37H92.151c1.341,0,2.429.759,2.429,1.7S93.493,40.392,92.151,40.392Z" transform="translate(-12190.848 -16183.822)" fill="#fff"/>
      <path id="Path_638" data-name="Path 638" d="M70.257,40.392H13.765a1.7,1.7,0,1,1,0-3.392H70.257a1.7,1.7,0,1,1,0,3.392Z" transform="translate(-12154.848 -16219.113)" fill="#fff"/>
      <path id="Path_641" data-name="Path 641" d="M70.257,40.392H13.765a1.7,1.7,0,1,1,0-3.392H70.257a1.7,1.7,0,1,1,0,3.392Z" transform="translate(-12154.848 -16135.195)" fill="#fff"/>
      <path id="Path_639" data-name="Path 639" d="M70.257,40.392H13.765a1.7,1.7,0,1,1,0-3.392H70.257a1.7,1.7,0,1,1,0,3.392Z" transform="translate(-12190.848 -16174.822)" fill="#fff"/>
    </g>
  </g>
</svg>
