<svg id="carousel-pay" xmlns="http://www.w3.org/2000/svg" width="110" height="168" viewBox="0 0 110 168">
  <rect id="Rectangle_1278" data-name="Rectangle 1278" width="106.302" height="159.792" rx="20" transform="translate(2 4.236)" fill="#fff"/>
  <g id="noun_mobile_payment_2065562" data-name="noun_mobile payment_2065562">
    <g id="_42-Mobile_Banking" data-name="42-Mobile Banking">
      <path id="Path_582" data-name="Path 582" d="M103.631,168H28.368C18.78,167.99,11.01,160.474,11,151.2V16.8C11.01,7.525,18.78.009,28.368,0h75.263C113.22.009,120.99,7.525,121,16.8V151.2C120.99,160.474,113.22,167.99,103.631,168ZM28.368,5.6A11.394,11.394,0,0,0,16.789,16.8V151.2a11.394,11.394,0,0,0,11.579,11.2h75.263a11.394,11.394,0,0,0,11.579-11.2V16.8A11.394,11.394,0,0,0,103.631,5.6Z" transform="translate(-11)" fill="#94d034"/>
      <path id="Path_583" data-name="Path 583" d="M46.094,9.774H25.887a2.887,2.887,0,1,1,0-5.774H46.094a2.887,2.887,0,1,1,0,5.774Z" transform="translate(11.766 7.547)" fill="#94d034"/>
      <circle id="Ellipse_29" data-name="Ellipse 29" cx="3" cy="3" r="3" transform="translate(66.439 11.415)" fill="#94d034"/>
      <path id="Path_584" data-name="Path 584" d="M93.215,141.358H23.691A8.518,8.518,0,0,1,15,133.023V16.335A8.518,8.518,0,0,1,23.691,8H93.215a8.518,8.518,0,0,1,8.691,8.335V133.023a8.518,8.518,0,0,1-8.691,8.335ZM23.691,13.557a2.839,2.839,0,0,0-2.9,2.778V133.023a2.839,2.839,0,0,0,2.9,2.778H93.215a2.839,2.839,0,0,0,2.9-2.778V16.335a2.839,2.839,0,0,0-2.9-2.778Z" transform="translate(-3.453 15.094)" fill="#94d034"/>
      <path id="Path_585" data-name="Path 585" d="M65.408,87.057H36.4A17.379,17.379,0,0,1,19,69.736V29.321A17.379,17.379,0,0,1,36.4,12H65.408a17.379,17.379,0,0,1,17.4,17.321V69.736a17.379,17.379,0,0,1-17.4,17.321ZM36.4,17.774A11.575,11.575,0,0,0,24.8,29.321V69.736A11.575,11.575,0,0,0,36.4,81.283H65.408a11.575,11.575,0,0,0,11.6-11.547V29.321a11.575,11.575,0,0,0-11.6-11.547Z" transform="translate(4.094 20.803)" fill="#f0dd5d"/>
      <path id="Path_586" data-name="Path 586" d="M39.434,41.094C30.4,41.094,25,36.764,25,29.547S30.4,18,39.434,18A14.451,14.451,0,0,1,53.868,32.434a2.887,2.887,0,1,1-5.774,0,8.66,8.66,0,0,0-8.66-8.66c-8.66,0-8.66,4.33-8.66,5.774s0,5.774,8.66,5.774a2.887,2.887,0,0,1,0,5.774Z" transform="translate(15.566 32.159)" fill="#94d034"/>
      <path id="Path_587" data-name="Path 587" d="M39.434,47.094A14.451,14.451,0,0,1,25,32.66a2.887,2.887,0,1,1,5.774,0,8.66,8.66,0,0,0,8.66,8.66c8.66,0,8.66-4.33,8.66-5.774s0-5.774-8.66-5.774a2.887,2.887,0,1,1,0-5.774c9.039,0,14.434,4.33,14.434,11.547S48.473,47.094,39.434,47.094Z" transform="translate(15.566 42.879)" fill="#94d034"/>
      <path id="Path_588" data-name="Path 588" d="M31.887,27.547A2.887,2.887,0,0,1,29,24.66V18.887a2.887,2.887,0,1,1,5.774,0V24.66A2.887,2.887,0,0,1,31.887,27.547Z" transform="translate(23.113 28.701)" fill="#94d034"/>
      <path id="Path_589" data-name="Path 589" d="M31.887,41.547A2.887,2.887,0,0,1,29,38.66V32.887a2.887,2.887,0,0,1,5.774,0V38.66A2.887,2.887,0,0,1,31.887,41.547Z" transform="translate(23.113 53.814)" fill="#94d034"/>
      <path id="Path_590" data-name="Path 590" d="M30.547,46.774h-8.66a2.887,2.887,0,1,1,0-5.774h8.66a2.887,2.887,0,1,1,0,5.774Z" transform="translate(4.167 73.677)" fill="#94d034"/>
      <path id="Path_591" data-name="Path 591" d="M37.547,46.774h-8.66a2.887,2.887,0,1,1,0-5.774h8.66a2.887,2.887,0,0,1,0,5.774Z" transform="translate(17.439 73.677)" fill="#94d034"/>
      <path id="Path_592" data-name="Path 592" d="M73.849,50.774H21.887a2.887,2.887,0,0,1,0-5.774H73.849a2.887,2.887,0,0,1,0,5.774Z" transform="translate(4.228 80.865)" fill="#94d034"/>
      <path id="Path_593" data-name="Path 593" d="M75.849,54.774H23.887a2.887,2.887,0,1,1,0-5.774H75.849a2.887,2.887,0,1,1,0,5.774Z" transform="translate(8.036 87.245)" fill="#94d034"/>
      <ellipse id="Ellipse_30" data-name="Ellipse 30" cx="2.5" cy="3" rx="2.5" ry="3" transform="translate(81.48 114.727)" fill="#94d034"/>
    </g>
  </g>
</svg>
