<svg id="carousel-locate" xmlns="http://www.w3.org/2000/svg" width="168" height="168" viewBox="0 0 168 168">
  <g id="_8-Smartphone" data-name="8-Smartphone">
    <path id="Path_594" data-name="Path 594" d="M90.118,168H16.9A16.866,16.866,0,0,1,0,151.2V16.8A16.866,16.866,0,0,1,16.9,0H90.118a16.866,16.866,0,0,1,16.9,16.8v8.4a2.816,2.816,0,0,1-5.632,0V16.8A11.233,11.233,0,0,0,90.118,5.6H16.9A11.233,11.233,0,0,0,5.632,16.8V151.2A11.233,11.233,0,0,0,16.9,162.4H90.118a11.233,11.233,0,0,0,11.265-11.2V131.6a2.816,2.816,0,0,1,5.632,0v19.6A16.866,16.866,0,0,1,90.118,168Z" fill="#94d034"/>
    <path id="Path_595" data-name="Path 595" d="M34.53,9.632H14.816a2.816,2.816,0,0,1,0-5.632H34.53a2.816,2.816,0,1,1,0,5.632Z" transform="translate(21.565 7.265)" fill="#94d034"/>
    <ellipse id="Ellipse_31" data-name="Ellipse 31" cx="2.5" cy="3" rx="2.5" ry="3" transform="translate(64.612 11)" fill="#94d034"/>
    <path id="Path_596" data-name="Path 596" d="M79.567,142.208H12.4A8.392,8.392,0,0,1,4,133.82V16.39A8.392,8.392,0,0,1,12.4,8H152.335a8.157,8.157,0,0,1,8.4,8.388v95.062a8.157,8.157,0,0,1-8.4,8.388H87.963v13.98a8.157,8.157,0,0,1-8.4,8.388ZM9.6,119.84v13.98a2.8,2.8,0,0,0,2.8,2.8H79.567a2.56,2.56,0,0,0,2.8-2.8V119.84Zm0-5.592H152.335a2.571,2.571,0,0,0,2.8-2.83V16.39a2.571,2.571,0,0,0-2.832-2.8H12.4a2.8,2.8,0,0,0-2.8,2.8Z" transform="translate(7.265 14.527)" fill="#94d034"/>
    <path id="Path_597" data-name="Path 597" d="M39.978,88.221a2.8,2.8,0,0,1-1.45-.4C37.322,87.095,9,69.828,9,45.978a30.978,30.978,0,0,1,61.956,0c0,23.85-28.322,41.116-29.528,41.84a2.8,2.8,0,0,1-1.45.4Zm0-67.589A25.377,25.377,0,0,0,14.632,45.978c0,17.824,19.764,32.333,25.346,36.075C45.56,78.311,65.324,63.8,65.324,45.978A25.377,25.377,0,0,0,39.978,20.632Z" transform="translate(16.346 26.814)" fill="#f0dd5d"/>
    <path id="Path_598" data-name="Path 598" d="M29.081,49.162A14.081,14.081,0,1,1,43.162,35.081,14.081,14.081,0,0,1,29.081,49.162Zm0-22.53a8.449,8.449,0,1,0,8.449,8.449A8.449,8.449,0,0,0,29.081,26.632Z" transform="translate(26.95 37.732)" fill="#f0dd5d"/>
    <path id="Path_599" data-name="Path 599" d="M81.875,81.589H45.265A11.265,11.265,0,0,1,34,70.324V25.265A11.265,11.265,0,0,1,45.265,14H81.875A11.265,11.265,0,0,1,93.14,25.265V70.324A11.265,11.265,0,0,1,81.875,81.589ZM45.265,19.632a5.632,5.632,0,0,0-5.632,5.632V70.324a5.632,5.632,0,0,0,5.632,5.632H81.875a5.632,5.632,0,0,0,5.632-5.632V25.265a5.632,5.632,0,0,0-5.632-5.632Z" transform="translate(60.775 25.049)" fill="#94d034"/>
    <path id="Path_600" data-name="Path 600" d="M39.632,55.978a2.816,2.816,0,0,1-1.991-4.807L46.915,41.9l-12.09-12.09a2.816,2.816,0,1,1,3.982-3.982L52.888,39.906a2.816,2.816,0,0,1,0,3.982L41.623,55.153A2.816,2.816,0,0,1,39.632,55.978Z" transform="translate(61.125 44.909)" fill="#94d034"/>
    <path id="Path_601" data-name="Path 601" d="M62.162,56.243a2.816,2.816,0,0,1-1.991-.825L34.825,30.072a2.816,2.816,0,1,1,3.982-3.982L62.162,49.445l7.283-7.283L46.09,18.807a2.816,2.816,0,1,1,3.982-3.982L75.418,40.171a2.816,2.816,0,0,1,0,3.982L64.153,55.418a2.816,2.816,0,0,1-1.991.825Z" transform="translate(61.014 25.124)" fill="#94d034"/>
    <path id="Path_602" data-name="Path 602" d="M68.53,39.346a2.816,2.816,0,0,1-1.991-.825L46.825,18.807a2.816,2.816,0,1,1,3.982-3.982L70.521,34.539a2.816,2.816,0,0,1-1.991,4.807Z" transform="translate(82.57 25.16)" fill="#94d034"/>
    <path id="Path_603" data-name="Path 603" d="M43.816,56.162a2.816,2.816,0,0,1-1.991-4.807l22.53-22.53a2.816,2.816,0,0,1,3.982,0L79.6,40.09a2.816,2.816,0,1,1-3.982,3.982L66.345,34.8,45.807,55.336A2.816,2.816,0,0,1,43.816,56.162Z" transform="translate(73.489 50.31)" fill="#94d034"/>
    <ellipse id="Ellipse_32" data-name="Ellipse 32" cx="3" cy="3.5" rx="3" ry="3.5" transform="translate(92.443 111.328)" fill="#94d034"/>
    <ellipse id="Ellipse_33" data-name="Ellipse 33" cx="3" cy="3.5" rx="3" ry="3.5" transform="translate(103.377 111.328)" fill="#94d034"/>
    <ellipse id="Ellipse_34" data-name="Ellipse 34" cx="2" cy="3.5" rx="2" ry="3.5" transform="translate(115.313 111.328)" fill="#94d034"/>
    <ellipse id="Ellipse_35" data-name="Ellipse 35" cx="3" cy="3.5" rx="3" ry="3.5" transform="translate(126.239 111.328)" fill="#94d034"/>
    <ellipse id="Ellipse_36" data-name="Ellipse 36" cx="3" cy="3.5" rx="3" ry="3.5" transform="translate(137.024 111.328)" fill="#94d034"/>
    <ellipse id="Ellipse_37" data-name="Ellipse 37" cx="3" cy="3.5" rx="3" ry="3.5" transform="translate(148.024 111.328)" fill="#94d034"/>
  </g>
</svg>
