<svg id="icon-report--green" xmlns="http://www.w3.org/2000/svg" xmlns:xlink="http://www.w3.org/1999/xlink" width="24" height="24" viewBox="0 0 48 64">
  <g id="Group_2955" data-name="Group 2955">
    <path id="Path_855" data-name="Path 855" d="M8.872,14.027H5.026A1.964,1.964,0,0,1,3.032,12.1V8.369A1.966,1.966,0,0,1,5.026,6.438H8.872a1.964,1.964,0,0,1,1.994,1.931V12.1a1.962,1.962,0,0,1-1.994,1.931" transform="translate(5.364 10.832)" fill="#94d034"/>
    <path id="Path_856" data-name="Path 856" d="M12.8,16.355H8.951a1.964,1.964,0,0,1-1.994-1.931V6.985A1.964,1.964,0,0,1,8.951,5.054H12.8a1.962,1.962,0,0,1,1.994,1.931v7.438A1.962,1.962,0,0,1,12.8,16.355" transform="translate(12.309 8.503)" fill="#94d034"/>
    <path id="Path_857" data-name="Path 857" d="M16.736,19.173H12.89A1.964,1.964,0,0,1,10.9,17.242V5.31A1.964,1.964,0,0,1,12.89,3.379h3.847A1.962,1.962,0,0,1,18.73,5.31V17.242a1.962,1.962,0,0,1-1.994,1.931" transform="translate(19.278 5.685)" fill="#94d034"/>
    <path id="Path_858" data-name="Path 858" d="M17.962,11.432A2.224,2.224,0,0,1,15.7,9.243V8.023a2.263,2.263,0,0,1,4.517,0V9.243a2.227,2.227,0,0,1-2.257,2.189" transform="translate(27.781 9.939)" fill="#94d034"/>
    <path id="Path_859" data-name="Path 859" d="M45.74,13.85A2.226,2.226,0,0,0,48,11.662V4.1A4.174,4.174,0,0,0,43.774,0H4.234A4.172,4.172,0,0,0,0,4.1V59.9A4.174,4.174,0,0,0,4.234,64H31.85a2.3,2.3,0,0,0,1.6-.638L47.335,49.937A2.166,2.166,0,0,0,48,48.389V25.65a2.262,2.262,0,0,0-4.519-.153,1.4,1.4,0,0,0,0,.153V46.206H31.85a2.224,2.224,0,0,0-2.26,2.189V59.626H4.517V4.376H43.483v7.288A2.226,2.226,0,0,0,45.74,13.85M40.276,50.578l-6.167,5.955V50.578Z" transform="translate(0 0.002)" fill="#94d034"/>
    <path id="Path_860" data-name="Path 860" d="M5.7,25.509a2.476,2.476,0,0,1-1.7-.66,2.326,2.326,0,0,1-.075-3.364l5.021-5.078a2.518,2.518,0,0,1,2.916-.464l7.455,3.793,9.9-8.192a2.517,2.517,0,0,1,3.462.266,2.328,2.328,0,0,1-.271,3.353L21.245,24.4a2.529,2.529,0,0,1-2.736.3l-7.292-3.71L7.473,24.774a2.485,2.485,0,0,1-1.772.735" transform="translate(5.742 18.469)" fill="#94d034"/>
  </g>
</svg>
