<svg id="icon-wallet" xmlns="http://www.w3.org/2000/svg" width="64" height="64" viewBox="0 0 64 64">
  <g id="Group_2688" data-name="Group 2688">
    <g id="Group_2687" data-name="Group 2687">
      <g id="Group_2682" data-name="Group 2682" transform="translate(46.911 10.698)">
        <path id="Path_658" data-name="Path 658" d="M367.485,105.056a2.488,2.488,0,0,1-2.158-1.546,2.188,2.188,0,0,1,3.79-2.188l.261.452A2.211,2.211,0,0,1,367.485,105.056Z" transform="translate(-365.034 -100.227)" fill="#171f58"/>
      </g>
      <g id="Group_2686" data-name="Group 2686">
        <g id="Group_2683" data-name="Group 2683" transform="translate(7.263 24.965)">
          <path id="Path_659" data-name="Path 659" d="M77.3,226.713a2.188,2.188,0,0,1-2.188-2.188V206.743a2.188,2.188,0,0,1,2.188-2.188h42.889a2.188,2.188,0,1,1,0,4.376h-40.7v15.594A2.188,2.188,0,0,1,77.3,226.713Z" transform="translate(-75.112 -204.555)" fill="#171f58"/>
        </g>
        <path id="Path_660" data-name="Path 660" d="M81.9,39.9H56.964l-3.729-6.441L64.12,27.175l1.889,3.27A2.188,2.188,0,1,0,69.8,28.257l-2.982-5.165a2.188,2.188,0,0,0-2.989-.8l-12.785,7.38-2.024-3.5a2.188,2.188,0,0,0-2.966-.811L28.219,35.389a2.233,2.233,0,0,0-.823,3l.872,1.51H26.1A4.107,4.107,0,0,0,22,44V81.9A4.107,4.107,0,0,0,26.1,86H81.9A4.107,4.107,0,0,0,86,81.9V44A4.107,4.107,0,0,0,81.9,39.9ZM32.292,38.119l14.022-7.88L51.908,39.9H33.321Zm-5.916,43.5V44.276H81.624v9.388H68.854a4.929,4.929,0,0,0-4.923,4.923v7.984a4.929,4.929,0,0,0,4.923,4.923H81.624V81.623H26.376ZM81.624,58.041v9.078H68.854a.548.548,0,0,1-.547-.547V58.588a.548.548,0,0,1,.547-.547Z" transform="translate(-22 -21.998)" fill="#171f58"/>
        <g id="Group_2684" data-name="Group 2684" transform="translate(50.517 38.335)">
          <ellipse id="Ellipse_62" data-name="Ellipse 62" cx="2.175" cy="2.178" rx="2.175" ry="2.178" fill="#171f58"/>
        </g>
        <g id="Group_2685" data-name="Group 2685" transform="translate(7.276 49.889)">
          <ellipse id="Ellipse_63" data-name="Ellipse 63" cx="2.175" cy="2.178" rx="2.175" ry="2.178" fill="#171f58"/>
        </g>
      </g>
    </g>
  </g>
</svg>
