<svg id="icon-account--green" xmlns="http://www.w3.org/2000/svg" width="24" height="24" viewBox="0 0 64 62.08">
  <g id="Group_2694" data-name="Group 2694" transform="translate(0 0.08)">
    <path id="Path_663" data-name="Path 663" d="M209.452,1356.814l-6.219-1.242,1.971-5.615a2.193,2.193,0,0,0-.969-2.624l-6.3-3.642a2.187,2.187,0,0,0-2.742.454l-4.176,4.774-3.863-4.515a2.189,2.189,0,0,0-2.756-.473l-5.9,3.416a19.173,19.173,0,0,0-12.151-4.363,16.468,16.468,0,0,0-10.441,3.067,2.191,2.191,0,0,0,2.458,3.627,12.16,12.16,0,0,1,7.987-2.31,14.818,14.818,0,0,1,11.846,5.955l.971,2.872-5.836,1.1a2.19,2.19,0,0,0-1.785,2.153V1366H159.581v-6.417a2.193,2.193,0,1,0-4.385,0V1366h-3.617s.015-5.375.2-6.271a2.189,2.189,0,1,0-4.289-.878h0c-.274,1.336-.286,7.557-.286,7.557a3.97,3.97,0,0,0,3.968,3.972h28.261l-1.879,5.358a2.19,2.19,0,0,0,.965,2.624L184.81,1382a2.208,2.208,0,0,0,2.742-.453l4.176-4.775,3.863,4.515a2.188,2.188,0,0,0,2.756.472l6.294-3.641a2.19,2.19,0,0,0,.977-2.6l-2.038-6.02,5.836-1.1a2.19,2.19,0,0,0,1.785-2.153v-7.283A2.19,2.19,0,0,0,209.452,1356.814Zm-2.616,7.613-6.162,1.158a2.717,2.717,0,0,0-1.906,3.3l2.142,6.332-3.166,1.831-4.082-4.768a2.7,2.7,0,0,0-3.811,0l-4.4,5.017-3.166-1.831,2.088-5.931a2.7,2.7,0,0,0-1.9-3.305h0l-6.54-1.3v-3.667l6.162-1.158a2.7,2.7,0,0,0,1.906-3.3v0l-2.14-6.33,3.166-1.831,4.082,4.768a2.689,2.689,0,0,0,3.8.008l.006-.008,4.4-5.016,3.166,1.831-2.088,5.931a2.718,2.718,0,0,0,1.9,3.3l6.54,1.307Z" transform="translate(-147.202 -1320.287)" fill="#94d034"/>
    <ellipse id="Ellipse_64" data-name="Ellipse 64" cx="5.095" cy="5.101" rx="5.095" ry="5.101" transform="translate(39.08 37.46)" fill="#94d034"/>
    <path id="Path_662" data-name="Path 662" d="M150.5,1351.685a2.21,2.21,0,0,1-1.852-3.355c.054-.086.439-.679.518-.8a2.19,2.19,0,1,1,3.648,2.423c-.127.193-.363.556-.457.707A2.189,2.189,0,0,1,150.5,1351.685Z" transform="translate(-145.976 -1316.378)" fill="#94d034"/>
    <path id="Path_821" data-name="Path 821" d="M15.365,0A10.464,10.464,0,1,1,4.9,10.464,10.476,10.476,0,0,1,15.365,0Zm0,16.222a5.758,5.758,0,1,0-5.76-5.758A5.764,5.764,0,0,0,15.365,16.222Z" transform="translate(3.98 -0.08)" fill="#94d034"/>
  </g>
</svg>
