<svg id="icon-edit--green" xmlns="http://www.w3.org/2000/svg" xmlns:xlink="http://www.w3.org/1999/xlink" width="20" height="20" viewBox="0 0 64 64">
  <defs>
    <clipPath id="clip-path">
      <rect id="Rectangle_1442" data-name="Rectangle 1442" width="64" height="64" fill="none"/>
    </clipPath>
  </defs>
  <g id="Group_2935" data-name="Group 2935" clip-path="url(#clip-path)">
    <path id="Path_829" data-name="Path 829" d="M12.521,13.752a2.646,2.646,0,0,1-1.871-4.516l.841-.841a2.645,2.645,0,0,1,3.741,3.741l-.841.841a2.639,2.639,0,0,1-1.871.775" transform="translate(16.252 12.539)" fill="#94d034"/>
    <path id="Path_830" data-name="Path 830" d="M2.646,57.014a2.647,2.647,0,0,1-2.41-3.739l9.618-21.2a2.632,2.632,0,0,1,.54-.778L21.622,20.07a2.645,2.645,0,0,1,3.741,3.741L14.476,34.7,7.964,49.05l14.351-6.511,24.1-24.1L38.571,10.6l-1.794,1.8a2.645,2.645,0,0,1-3.741-3.741L36.7,4.989a2.723,2.723,0,0,1,3.741,0L52.025,16.572a2.644,2.644,0,0,1,0,3.741L25.715,46.621a2.632,2.632,0,0,1-.778.54l-21.2,9.618a2.648,2.648,0,0,1-1.093.235" transform="translate(0 6.986)" fill="#94d034"/>
    <path id="Path_831" data-name="Path 831" d="M30.147,21.887a2.639,2.639,0,0,1-1.871-.775L16.693,9.528a2.643,2.643,0,0,1,0-3.741L20.04,2.44C21.818.66,27.821-2.59,34.107,3.7s3.037,12.287,1.257,14.068l-3.347,3.347a2.639,2.639,0,0,1-1.871.775M22.3,7.658,30.147,15.5l1.474-1.476c.582-.622,2.3-3.032-1.254-6.585S24.405,5.6,23.749,6.213Z" transform="translate(26.196 -0.001)" fill="#94d034"/>
    <path id="Path_832" data-name="Path 832" d="M13.825,27.048a2.639,2.639,0,0,1-1.871-.775l-5.3-5.3a2.645,2.645,0,0,1,3.741-3.741l5.3,5.3a2.646,2.646,0,0,1-1.871,4.516" transform="translate(9.667 27.075)" fill="#94d034"/>
  </g>
</svg>
