<svg id="icon-solid-help" xmlns="http://www.w3.org/2000/svg" width="24" height="24" viewBox="0 0 24 24">
  <rect id="Rectangle_481" data-name="Rectangle 481" width="24" height="24" fill="none"/>
  <path id="Path_146" data-name="Path 146" d="M12,0A12,12,0,1,0,24,12,12.035,12.035,0,0,0,12,0Zm-.12,19.92a1.68,1.68,0,1,1,1.68-1.68A1.64,1.64,0,0,1,11.88,19.92Zm3.24-9.36L13.8,12a1.466,1.466,0,0,0-.48,1.08,1.459,1.459,0,0,1-1.44,1.44,1.386,1.386,0,0,1-1.44-1.44,2.678,2.678,0,0,1,.96-2.16L12.48,9.6a2.724,2.724,0,0,0,.84-1.68A1.259,1.259,0,0,0,12,6.6a1.412,1.412,0,0,0-1.44,1.08,1.567,1.567,0,0,1-1.44.84A1.259,1.259,0,0,1,7.8,7.2a1.3,1.3,0,0,1,.12-.6A4,4,0,0,1,12,4.08a3.888,3.888,0,0,1,4.2,3.84A3.937,3.937,0,0,1,15.12,10.56Z" fill="#94d034"/>
</svg>
