<svg xmlns="http://www.w3.org/2000/svg" width="49.548" height="64" viewBox="0 0 49.548 64">
  <g id="icon-invoice" transform="translate(49.548 64) rotate(180)">
    <g id="Group_2680" data-name="Group 2680" transform="translate(49.548 64) rotate(180)">
      <g id="Group_2673" data-name="Group 2673">
        <g id="Group_2672" data-name="Group 2672" transform="translate(44.885 15.772)">
          <path id="Path_652" data-name="Path 652" d="M396.332,142.933A2.263,2.263,0,0,1,394,140.745v-1.222a2.336,2.336,0,0,1,4.663,0v1.222A2.263,2.263,0,0,1,396.332,142.933Z" transform="translate(-394 -137.335)" fill="#171f58"/>
        </g>
        <path id="Path_653" data-name="Path 653" d="M133.217,35.851a2.263,2.263,0,0,0,2.332-2.188V26.1a4.249,4.249,0,0,0-4.372-4.1h-40.8A4.249,4.249,0,0,0,86,26.1V81.9A4.249,4.249,0,0,0,90.372,86h28.5a2.412,2.412,0,0,0,1.646-.639l14.34-13.42a2.122,2.122,0,0,0,.685-1.549V47.65a2.336,2.336,0,0,0-4.663,0V68.2H118.877a2.263,2.263,0,0,0-2.332,2.188V81.624H90.663V26.376h40.222v7.287A2.263,2.263,0,0,0,133.217,35.851Zm-5.64,36.729-6.368,5.96V72.58Z" transform="translate(-86 -22)" fill="#171f58"/>
      </g>
      <g id="Group_2679" data-name="Group 2679" transform="translate(10.473 18.387)">
        <g id="Group_2677" data-name="Group 2677">
          <g id="Group_2674" data-name="Group 2674" transform="translate(0 16.41)">
            <path id="Path_654" data-name="Path 654" d="M185.06,205.347H160.2a2.192,2.192,0,1,1,0-4.376h24.86a2.192,2.192,0,1,1,0,4.376Z" transform="translate(-157.868 -200.971)" fill="#171f58"/>
          </g>
          <g id="Group_2675" data-name="Group 2675" transform="translate(0 8.205)">
            <path id="Path_655" data-name="Path 655" d="M185.06,145.347H160.2a2.193,2.193,0,1,1,0-4.376h24.86a2.193,2.193,0,1,1,0,4.376Z" transform="translate(-157.868 -140.971)" fill="#171f58"/>
          </g>
          <g id="Group_2676" data-name="Group 2676">
            <path id="Path_656" data-name="Path 656" d="M185.06,85.347H160.2a2.192,2.192,0,1,1,0-4.376h24.86a2.192,2.192,0,1,1,0,4.376Z" transform="translate(-157.868 -80.971)" fill="#171f58"/>
          </g>
        </g>
      </g>
    </g>
  </g>
</svg>
