<svg id="icon-payment-out" xmlns="http://www.w3.org/2000/svg" width="62" height="52" viewBox="0 0 62 52">
  <g id="Group_2747" data-name="Group 2747">
    <g id="Group_2699" data-name="Group 2699">
      <path id="Path_670" data-name="Path 670" d="M594.022,1436a22.392,22.392,0,0,0-15.752,27.322,22.12,22.12,0,0,0,23.61,16.561l3.462-.632a22.255,22.255,0,0,0,15.806-16.177,1.752,1.752,0,0,1,2.126-1.289,1.775,1.775,0,0,1,1.274,2.149,25.672,25.672,0,0,1-31.127,18.96,26.013,26.013,0,0,1-18.739-31.493,25.621,25.621,0,0,1,49.854-.044h0a1.773,1.773,0,0,1-1.342,2.109,1.752,1.752,0,0,1-2.058-1.252,22.117,22.117,0,0,0-23.666-16.845Z" transform="translate(-573.918 -1431.667)" fill="#171f58"/>
    </g>
    <path id="Path_703" data-name="Path 703" d="M590.683,1463.153a4.139,4.139,0,0,1-4.422-3.776,1.8,1.8,0,1,0-3.594,0,7.567,7.567,0,0,0,6.221,7.213v2.156a1.8,1.8,0,1,0,3.594,0h0v-2.157a7.571,7.571,0,0,0,6.221-7.213,7.216,7.216,0,0,0-5.019-7.016l-4.865-1.63a3.541,3.541,0,0,1-2.559-3.564,4.478,4.478,0,0,1,8.844,0,1.8,1.8,0,1,0,3.594,0,7.575,7.575,0,0,0-6.221-7.216v-2.156a1.8,1.8,0,1,0-3.594,0v2.157a7.573,7.573,0,0,0-6.221,7.216,7.21,7.21,0,0,0,5.019,7.016l4.867,1.636a3.543,3.543,0,0,1,2.56,3.564A4.14,4.14,0,0,1,590.683,1463.153Z" transform="translate(-565.207 -1427.271)" fill="#171f58"/>
    <path id="Path_713" data-name="Path 713" d="M608.567,1447.274H593.382a1.818,1.818,0,0,1,0-3.636h15.185a1.818,1.818,0,0,1,0,3.636Z" transform="translate(-556.314 -1419.456)" fill="#171f58"/>
    <path id="Path_714" data-name="Path 714" d="M602.18,1455.58a1.784,1.784,0,0,1-1.272-.533,1.836,1.836,0,0,1,0-2.572l4.3-4.349-4.069-4.115a1.832,1.832,0,0,1,0-2.572,1.78,1.78,0,0,1,2.541,0l5.339,5.4a1.832,1.832,0,0,1,0,2.572l-5.568,5.634A1.781,1.781,0,0,1,602.18,1455.58Z" transform="translate(-547.547 -1422.243)" fill="#171f58"/>
  </g>
</svg>
