<svg id="icon-invoice" xmlns="http://www.w3.org/2000/svg" width="48" height="64" viewBox="0 0 48 64">
  <g id="Group_2680" data-name="Group 2680">
    <g id="Group_2673" data-name="Group 2673">
      <g id="Group_2672" data-name="Group 2672" transform="translate(43.482 15.772)">
        <path id="Path_652" data-name="Path 652" d="M396.259,142.933A2.224,2.224,0,0,1,394,140.745v-1.222a2.26,2.26,0,0,1,4.518,0v1.222A2.224,2.224,0,0,1,396.259,142.933Z" transform="translate(-394 -137.335)" fill="#171f58"/>
      </g>
      <path id="Path_653" data-name="Path 653" d="M131.741,35.851A2.224,2.224,0,0,0,134,33.663V26.1a4.175,4.175,0,0,0-4.235-4.1H90.235A4.175,4.175,0,0,0,86,26.1V81.9A4.175,4.175,0,0,0,90.235,86h27.614a2.3,2.3,0,0,0,1.595-.639l13.892-13.42A2.154,2.154,0,0,0,134,70.392V47.65a2.26,2.26,0,0,0-4.518,0V68.2H117.849a2.224,2.224,0,0,0-2.259,2.188V81.624H90.518V26.376h38.965v7.287A2.224,2.224,0,0,0,131.741,35.851ZM126.277,72.58l-6.169,5.96V72.58Z" transform="translate(-86 -22)" fill="#171f58"/>
    </g>
    <g id="Group_2679" data-name="Group 2679" transform="translate(10.146 8.064)">
      <g id="Group_2677" data-name="Group 2677">
        <g id="Group_2674" data-name="Group 2674" transform="translate(0 16.41)">
          <path id="Path_654" data-name="Path 654" d="M184.21,205.347H160.127a2.189,2.189,0,1,1,0-4.376H184.21a2.189,2.189,0,1,1,0,4.376Z" transform="translate(-157.868 -200.971)" fill="#171f58"/>
        </g>
        <g id="Group_2675" data-name="Group 2675" transform="translate(0 8.205)">
          <path id="Path_655" data-name="Path 655" d="M184.21,145.347H160.127a2.189,2.189,0,1,1,0-4.376H184.21a2.189,2.189,0,1,1,0,4.376Z" transform="translate(-157.868 -140.971)" fill="#171f58"/>
        </g>
        <g id="Group_2676" data-name="Group 2676">
          <path id="Path_656" data-name="Path 656" d="M184.21,85.347H160.127a2.189,2.189,0,1,1,0-4.376H184.21a2.189,2.189,0,1,1,0,4.376Z" transform="translate(-157.868 -80.971)" fill="#171f58"/>
        </g>
      </g>
      <g id="Group_2678" data-name="Group 2678" transform="translate(1.366 24.813)">
        <path id="Path_657" data-name="Path 657" d="M174.631,272.087c-2.521-1.01-2.946-1.551-2.946-2.38,0-.768.574-1.588,2.185-1.588a7.619,7.619,0,0,1,3.8,1.205l1.186-3.032a9.156,9.156,0,0,0-3.711-1.267v-2.607h-3.1v2.8a4.944,4.944,0,0,0-4.118,4.81c0,2.932,2.5,4.278,4.941,5.2,2.321.912,2.641,1.745,2.641,2.51,0,1.14-1.021,1.906-2.54,1.906a7.765,7.765,0,0,1-4.288-1.507l-1.139,3.08a8.651,8.651,0,0,0,4.312,1.553v2.706h3.13V282.6a5.247,5.247,0,0,0,4.309-5.047c0-3.213-2.494-4.61-4.663-5.466-2.521-1.01,2.169.857,0,0-2.521-1.01,2.169.857,0,0-2.521-1.01,2.169.857,0,0-2.521-1.01,2.169.857,0,0C172.111,271.076,176.8,272.944,174.631,272.087Z" transform="translate(-167.544 -262.418)" fill="#171f58"/>
      </g>
    </g>
  </g>
</svg>
