<svg id="icon-settings--green" xmlns="http://www.w3.org/2000/svg" width="24" height="24" viewBox="0 0 68 68">
  <g id="Group_2719" data-name="Group 2719">
    <path id="Path_682" data-name="Path 682" d="M478.111,1458.417h-9.262a4.009,4.009,0,0,1-4.138-3.954v-3.344a27.735,27.735,0,0,1-9.5-5.33l-3.068,1.636a4.22,4.22,0,0,1-3.117.367,4.089,4.089,0,0,1-2.484-1.9c-1.61-2.65-3.228-5.457-4.543-7.743a3.882,3.882,0,0,1,1.6-5.387l3.021-1.626a24.892,24.892,0,0,1-.438-4.723,25.443,25.443,0,0,1,.438-4.745l-3.024-1.624a3.888,3.888,0,0,1-1.595-5.4c1.53-2.7,3.166-5.444,4.548-7.75a4.086,4.086,0,0,1,2.471-1.876,4.269,4.269,0,0,1,3.122.372l3.062,1.634a27.752,27.752,0,0,1,9.5-5.333v-3.32a4.007,4.007,0,0,1,4.138-3.954h9.262a4.005,4.005,0,0,1,4.138,3.954v3.327a27.725,27.725,0,0,1,9.478,5.325l3.07-1.636a4.268,4.268,0,0,1,3.132-.37,4.112,4.112,0,0,1,2.492,1.9l4.533,7.723a3.9,3.9,0,0,1-1.615,5.4l-3.024,1.624a25.01,25.01,0,0,1,.462,4.747,24.508,24.508,0,0,1-.459,4.725l3.018,1.624a3.9,3.9,0,0,1,1.621,5.4l-4.538,7.733a4.094,4.094,0,0,1-2.489,1.894,4.254,4.254,0,0,1-3.138-.37l-3.065-1.634a27.7,27.7,0,0,1-9.478,5.323v3.352A4.007,4.007,0,0,1,478.111,1458.417Zm-8.215-4.958h7.167V1450.4a3.982,3.982,0,0,1,2.909-3.8,22.092,22.092,0,0,0,8.749-4.916,4.326,4.326,0,0,1,4.919-.562l2.764,1.478,3.516-5.99-2.813-1.51a3.932,3.932,0,0,1-2.015-4.274,20,20,0,0,0,.5-4.415,20.444,20.444,0,0,0-.5-4.44,3.926,3.926,0,0,1,2-4.264l2.829-1.517-3.516-5.987-2.8,1.492a4.3,4.3,0,0,1-4.88-.575,22.136,22.136,0,0,0-8.752-4.916,4.011,4.011,0,0,1-2.915-3.778v-3.054H469.9v3.054a4,4,0,0,1-2.974,3.788,22.077,22.077,0,0,0-8.7,4.9,4.326,4.326,0,0,1-4.919.565l-2.754-1.473c-1.1,1.847-2.331,3.91-3.519,5.985l2.806,1.51a3.937,3.937,0,0,1,2.017,4.264,20.242,20.242,0,0,0-.477,4.445,20.023,20.023,0,0,0,.474,4.418,3.936,3.936,0,0,1-2.007,4.267l-2.811,1.512c1.061,1.84,2.274,3.929,3.511,5.99l2.79-1.49a4.3,4.3,0,0,1,4.88.573,22.116,22.116,0,0,0,8.749,4.919,4.032,4.032,0,0,1,2.938,3.83Zm-4.463-2.115.034.01Zm-.723-.939v0Zm17.539-.04v0Zm8.832-4.924.026.015Zm-35.2-.015-.031.015Zm-4.852-2,.01.012Zm-4.5-7.673.008.01Zm53.632-3.885,0,.005Zm0-10.928v0Zm-53.6-3.922-.01.02Zm4.509-7.675-.008.01Zm40.014-1.969-.028.012Zm-35.25-.015.023.015Zm9.6-5.888-.031.01Zm12.677-2.092h0Z" transform="translate(-441.477 -1394.417)" fill="#94d034"/>
  </g>
  <g id="Group_2720" data-name="Group 2720" transform="translate(14.915 15.663)">
    <path id="Path_683" data-name="Path 683" d="M464.315,1433.406c-9.418,0-17.086-7.328-17.086-16.335a15.221,15.221,0,0,1,1.286-6.327,2.641,2.641,0,0,1,3.4-1.306,2.441,2.441,0,0,1,1.367,3.255,10.531,10.531,0,0,0-.869,4.378,11.912,11.912,0,1,0,11.9-11.377,12.282,12.282,0,0,0-4.7.828,2.636,2.636,0,0,1-3.4-1.3,2.44,2.44,0,0,1,1.364-3.255,17.48,17.48,0,0,1,6.739-1.23c9.421,0,17.086,7.329,17.086,16.335S473.735,1433.406,464.315,1433.406Z" transform="translate(-447.229 -1400.735)" fill="#94d034"/>
    <path id="Path_684" data-name="Path 684" d="M451.384,1407.317a2.6,2.6,0,0,1-1.724-.632,2.359,2.359,0,0,1-.2-3.461l.083-.087a2.681,2.681,0,0,1,3.664-.151,2.4,2.4,0,0,1,.161,3.5A2.763,2.763,0,0,1,451.384,1407.317Z" transform="translate(-444.733 -1398.369)" fill="#94d034"/>
  </g>
</svg>