<svg id="icon-companies" xmlns="http://www.w3.org/2000/svg" width="24" height="24" viewBox="0 0 64 64">
  <g id="Group_3038" data-name="Group 3038">
    <path id="Path_902" data-name="Path 902" d="M2.078,30.21A2.079,2.079,0,0,1,0,28.132V2.078A2.079,2.079,0,0,1,2.078,0H45.894a2.079,2.079,0,0,1,2.078,2.078V9a2.078,2.078,0,1,1-4.155,0V4.156H4.155V28.132A2.079,2.079,0,0,1,2.078,30.21" transform="translate(0 0.001)" fill="#94d034"/>
    <path id="Path_903" data-name="Path 903" d="M2.078,17.538A2.079,2.079,0,0,1,0,15.46V13.773a2.078,2.078,0,1,1,4.155,0V15.46a2.079,2.079,0,0,1-2.078,2.078" transform="translate(0 20.708)" fill="#94d034"/>
    <path id="Path_904" data-name="Path 904" d="M61.922,54.779H2.078A2.079,2.079,0,0,1,0,52.7V33.692a2.078,2.078,0,1,1,4.155,0V50.623H16.028V7.286a2.079,2.079,0,0,1,2.078-2.078H61.922A2.079,2.079,0,0,1,64,7.286V52.7a2.079,2.079,0,0,1-2.078,2.078M20.184,50.623H59.845V9.364H20.184Z" transform="translate(0 9.222)" fill="#94d034"/>
    <path id="Path_905" data-name="Path 905" d="M18.9,16.984h3.859a1.993,1.993,0,0,0,1.995-1.995V10.476a1.993,1.993,0,0,0-1.995-1.995H18.9A1.993,1.993,0,0,0,16.9,10.476v4.513A1.993,1.993,0,0,0,18.9,16.984" transform="translate(29.922 15.017)" fill="#94d034"/>
    <path id="Path_906" data-name="Path 906" d="M15.023,16.984h3.859a1.993,1.993,0,0,0,1.995-1.995V10.476a1.993,1.993,0,0,0-1.995-1.995H15.023a1.993,1.993,0,0,0-1.995,1.995v4.513a1.993,1.993,0,0,0,1.995,1.995" transform="translate(23.062 15.017)" fill="#94d034"/>
    <path id="Path_907" data-name="Path 907" d="M11.147,16.984h3.859A1.993,1.993,0,0,0,17,14.989V10.476a1.993,1.993,0,0,0-1.995-1.995H11.147a1.993,1.993,0,0,0-1.995,1.995v4.513a1.993,1.993,0,0,0,1.995,1.995" transform="translate(16.201 15.017)" fill="#94d034"/>
    <path id="Path_908" data-name="Path 908" d="M18.9,23.273h3.859a1.993,1.993,0,0,0,1.995-1.995V16.765a1.993,1.993,0,0,0-1.995-1.995H18.9A1.993,1.993,0,0,0,16.9,16.765v4.513A1.993,1.993,0,0,0,18.9,23.273" transform="translate(29.922 26.152)" fill="#94d034"/>
    <path id="Path_909" data-name="Path 909" d="M15.023,23.273h3.859a1.993,1.993,0,0,0,1.995-1.995V16.765a1.993,1.993,0,0,0-1.995-1.995H15.023a1.993,1.993,0,0,0-1.995,1.995v4.513a1.993,1.993,0,0,0,1.995,1.995" transform="translate(23.062 26.152)" fill="#94d034"/>
    <path id="Path_910" data-name="Path 910" d="M11.147,23.273h3.859A1.993,1.993,0,0,0,17,21.278V16.765a1.993,1.993,0,0,0-1.995-1.995H11.147a1.993,1.993,0,0,0-1.995,1.995v4.513a1.993,1.993,0,0,0,1.995,1.995" transform="translate(16.201 26.152)" fill="#94d034"/>
    <path id="Path_911" data-name="Path 911" d="M11.147,16.984h3.859A1.993,1.993,0,0,0,17,14.989V10.476a1.993,1.993,0,0,0-1.995-1.995H11.147a1.993,1.993,0,0,0-1.995,1.995v4.513a1.993,1.993,0,0,0,1.995,1.995" transform="translate(16.201 15.017)" fill="#94d034"/>
    <path id="Path_912" data-name="Path 912" d="M11.147,23.273h3.859A1.993,1.993,0,0,0,17,21.278V16.765a1.993,1.993,0,0,0-1.995-1.995H11.147a1.993,1.993,0,0,0-1.995,1.995v4.513a1.993,1.993,0,0,0,1.995,1.995" transform="translate(16.201 26.152)" fill="#94d034"/>
  </g>
</svg>
