<svg id="icon-payment-in" xmlns="http://www.w3.org/2000/svg" width="62" height="52" viewBox="0 0 62 52">
  <g id="Group_2746" data-name="Group 2746">
    <g id="Group_2699" data-name="Group 2699" transform="translate(11.319)">
      <path id="Path_670" data-name="Path 670" d="M567.568,1479.334a22.394,22.394,0,0,0,15.752-27.322,22.121,22.121,0,0,0-23.61-16.561l-3.464.632a22.26,22.26,0,0,0-15.806,16.177,1.75,1.75,0,0,1-2.124,1.289,1.773,1.773,0,0,1-1.274-2.149,25.671,25.671,0,0,1,31.126-18.96,26.014,26.014,0,0,1,18.739,31.493,25.62,25.62,0,0,1-49.853.045h0a1.773,1.773,0,0,1,1.342-2.109,1.752,1.752,0,0,1,2.058,1.253,22.117,22.117,0,0,0,23.664,16.847Z" transform="translate(-536.989 -1431.667)" fill="#171f58"/>
    </g>
    <path id="Path_703" data-name="Path 703" d="M553.618,1443.388a4.141,4.141,0,0,1,4.422,3.776,1.8,1.8,0,1,0,3.594,0,7.572,7.572,0,0,0-6.221-7.214v-2.155a1.8,1.8,0,1,0-3.594,0h0v2.157a7.571,7.571,0,0,0-6.221,7.214,7.217,7.217,0,0,0,5.019,7.016l4.865,1.63a3.541,3.541,0,0,1,2.559,3.563,4.478,4.478,0,0,1-8.844,0,1.8,1.8,0,1,0-3.594,0,7.574,7.574,0,0,0,6.221,7.215v2.155a1.8,1.8,0,1,0,3.594,0v-2.157a7.575,7.575,0,0,0,6.221-7.215,7.214,7.214,0,0,0-5.019-7.016l-4.867-1.636a3.543,3.543,0,0,1-2.56-3.563A4.141,4.141,0,0,1,553.618,1443.388Z" transform="translate(-517.093 -1427.271)" fill="#171f58"/>
    <path id="Path_711" data-name="Path 711" d="M548.3,1447.274H533.119a1.818,1.818,0,0,1,0-3.636H548.3a1.818,1.818,0,0,1,0,3.636Z" transform="translate(-531.32 -1419.456)" fill="#171f58"/>
    <path id="Path_712" data-name="Path 712" d="M541.918,1455.58a1.781,1.781,0,0,1-1.272-.533,1.832,1.832,0,0,1,0-2.571l4.3-4.349-4.069-4.115a1.832,1.832,0,0,1,0-2.571,1.78,1.78,0,0,1,2.541,0l5.338,5.4a1.832,1.832,0,0,1,0,2.571l-5.568,5.634A1.779,1.779,0,0,1,541.918,1455.58Z" transform="translate(-522.552 -1422.243)" fill="#171f58"/>
  </g>
</svg>
