<svg id="icon-notification" xmlns="http://www.w3.org/2000/svg" width="55.248" height="64" viewBox="0 0 55.248 64">
  <g id="Group_2713" data-name="Group 2713">
    <g id="Group_2712" data-name="Group 2712">
      <g id="Group_2711" data-name="Group 2711" transform="translate(42.812 40.522)">
        <path id="Path_667" data-name="Path 667" d="M369.824,323.628a2.194,2.194,0,0,1-1.976-1.237c-.1-.207-.379-.825-.41-.891a2.194,2.194,0,0,1,3.962-1.883c.112.236.37.807.4.864A2.212,2.212,0,0,1,369.824,323.628Z" transform="translate(-367.224 -318.366)" fill="#171f58"/>
      </g>
      <path id="Path_668" data-name="Path 668" d="M108.422,73.719a21.463,21.463,0,0,1-3.95-4.026,2.189,2.189,0,0,0-3.491,2.644q.359.473.733.925H61.757a30.981,30.981,0,0,0,5.072-9.015,48.418,48.418,0,0,0,2.879-16.526v-1.96a11.917,11.917,0,0,1,23.829,0v1.96A47.651,47.651,0,0,0,94.772,58.54a2.19,2.19,0,0,0,4.266-.994,43.26,43.26,0,0,1-1.12-9.825v-1.96A16.073,16.073,0,0,0,87.142,30.68a5.946,5.946,0,0,0,.61-2.627,6.13,6.13,0,0,0-12.26,0,5.946,5.946,0,0,0,.61,2.626A16.074,16.074,0,0,0,65.329,45.761v1.96c0,9.414-3.212,21.078-10.389,25.915a2.2,2.2,0,0,0,1.225,4H71.317a10.532,10.532,0,0,0,20.611,0h15.154a2.2,2.2,0,0,0,1.34-3.919Zm-26.8-47.344a1.68,1.68,0,1,1-1.75,1.678A1.717,1.717,0,0,1,81.623,26.375Zm0,55.248a6.126,6.126,0,0,1-5.772-3.985H87.394A6.125,6.125,0,0,1,81.623,81.623Z" transform="translate(-54.001 -21.999)" fill="#171f58"/>
    </g>
  </g>
</svg>
