<svg id="icon-star" xmlns="http://www.w3.org/2000/svg" width="24" height="23" viewBox="0 0 24 23">
  <g id="Polygon_9" data-name="Polygon 9" fill="none" stroke-linecap="round" stroke-linejoin="round">
    <path d="M12,0l3.12,8.387,8.88.4-6.952,5.582L19.416,23,12,18.063,4.584,23l2.368-8.633L0,8.785l8.88-.4Z" stroke="none"/>
    <path d="M 12 2.868095397949219 L 9.81725025177002 8.735580444335938 C 9.677280426025391 9.111849784851074 9.325860023498535 9.36793041229248 8.924810409545898 9.385919570922852 L 2.693475723266602 9.665417671203613 L 7.577810287475586 13.58716011047363 C 7.888629913330078 13.83673000335693 8.021550178527832 14.24705028533936 7.916109085083008 14.63146018981934 L 6.255355834960938 20.68575668334961 L 11.44585037231445 17.23035049438477 C 11.78149032592773 17.00690078735352 12.21850967407227 17.00690078735352 12.55414962768555 17.23035049438477 L 17.74464416503906 20.68575668334961 L 16.08388900756836 14.63146018981934 C 15.97844982147217 14.24705028533936 16.11137008666992 13.83673000335693 16.42218971252441 13.58716011047363 L 21.3065242767334 9.665417671203613 L 15.0751895904541 9.385919570922852 C 14.67413997650146 9.36793041229248 14.32271957397461 9.111849784851074 14.18274974822998 8.735580444335938 L 12 2.868095397949219 M 12 0 L 15.11999988555908 8.386919975280762 L 24 8.785220146179199 L 17.04827117919922 14.36692047119141 L 19.41641044616699 23 L 12 18.06275939941406 L 4.583589553833008 23 L 6.951730728149414 14.36692047119141 L 0 8.785220146179199 L 8.880000114440918 8.386919975280762 L 12 0 Z" stroke="none" fill="#171f58"/>
  </g>
</svg>
