<svg id="icon-network--green" xmlns="http://www.w3.org/2000/svg" width="24" height="24" viewBox="0 0 64 64">
  <g id="Group_2699" data-name="Group 2699">
    <g id="Group_2698" data-name="Group 2698" transform="translate(12.313 4.846)">
      <path id="Path_669" data-name="Path 669" d="M459.169,1340.733a4.414,4.414,0,0,0,2.381-1.2,2.188,2.188,0,0,0-2.5-3.594c-.264.184-.948.675-1.167.832a2.2,2.2,0,0,0,1.282,3.96Z" transform="translate(-457.009 -1335.551)" fill="#94d034"/>
    </g>
    <path id="Path_670" data-name="Path 670" d="M452.563,1386.623a27.6,27.6,0,0,0,38.927-38.906l-3.109-3.108a27.634,27.634,0,0,0-27.656-4.845,2.187,2.187,0,1,1-1.543-4.092,32.062,32.062,0,1,1-12.755,8.853h0a2.188,2.188,0,0,1,3.289,2.886,27.577,27.577,0,0,0-.244,36.119Z" transform="translate(-438.479 -1333.607)" fill="#94d034"/>
  </g>
  <g id="bolt-white" transform="translate(21.75 11.237)">
    <path id="bolt" d="M196.85,48.984,200.9,30.716l-7.414-1.467,16.96-20.163L206.324,27.6l7.107,1.411Z" transform="translate(-193.483 -9.087)" fill="#94d034"/>
  </g>
</svg>
