<svg id="icon-help" xmlns="http://www.w3.org/2000/svg" width="64" height="64" viewBox="0 0 64 64">
  <g id="Group_2699" data-name="Group 2699">
    <g id="Group_2698" data-name="Group 2698" transform="translate(12.314 4.846)">
      <path id="Path_669" data-name="Path 669" d="M386.97,1340.733a4.415,4.415,0,0,0,2.381-1.2,2.187,2.187,0,1,0-2.493-3.594c-.267.185-.95.676-1.167.833a2.2,2.2,0,0,0,1.279,3.96Z" transform="translate(-384.813 -1335.551)" fill="#171f58"/>
    </g>
    <path id="Path_670" data-name="Path 670" d="M380.368,1386.623a27.6,27.6,0,0,0,38.923-38.906l-3.107-3.108a27.635,27.635,0,0,0-27.658-4.845,2.187,2.187,0,0,1-1.543-4.092,32.071,32.071,0,1,1-12.752,8.853h0a2.188,2.188,0,0,1,3.289,2.886,27.575,27.575,0,0,0-.247,36.119Z" transform="translate(-366.282 -1333.606)" fill="#171f58"/>
  </g>
  <path id="Path_146-4" data-name="Path 146-4" d="M385.092,1378.036a4.187,4.187,0,1,1,4.189-4.187,4.088,4.088,0,0,1-3.987,4.187Zm8.079-23.328-3.291,3.589a3.657,3.657,0,0,0-1.2,2.692,3.638,3.638,0,0,1-3.591,3.589,3.457,3.457,0,0,1-3.591-3.315c0-.092,0-.184,0-.274a6.678,6.678,0,0,1,2.394-5.383l2.693-3.29a6.78,6.78,0,0,0,2.094-4.187,3.136,3.136,0,0,0-2.98-3.29c-.1,0-.207,0-.312,0a3.519,3.519,0,0,0-3.591,2.692,3.911,3.911,0,0,1-3.591,2.094,3.142,3.142,0,0,1-3.291-2.978c-.005-.1-.005-.21,0-.312a3.251,3.251,0,0,1,.3-1.5,9.974,9.974,0,0,1,10.173-6.28,9.693,9.693,0,0,1,10.443,8.88c.018.229.028.459.03.69A9.8,9.8,0,0,1,393.17,1354.708Z" transform="translate(-353.39 -1326.277)" fill="#171f58"/>
</svg>
