<svg id="icon-calendar" xmlns="http://www.w3.org/2000/svg" width="54" height="64" viewBox="0 0 54 64">
  <g id="Group_2716" data-name="Group 2716">
    <g id="Group_2715" data-name="Group 2715">
      <path id="Path_671" data-name="Path 671" d="M536.355,1392.5a2.679,2.679,0,0,0,2.673,2.684H585.4a4.975,4.975,0,0,0,4.959-4.979l-.011-47.132a4.973,4.973,0,0,0-4.959-4.972H579.62v-4.236a2.673,2.673,0,1,0-5.347,0v4.236H552.417v-4.236a2.674,2.674,0,1,0-5.349,0v4.236h-5.752a4.973,4.973,0,0,0-4.961,4.977v18.013a2.675,2.675,0,1,0,5.349,0v-4.59h43.3v33.317h-45.98A2.677,2.677,0,0,0,536.355,1392.5ZM585,1343.466l.009,7.673H541.7v-7.673h5.364v2.8a2.674,2.674,0,1,0,5.349,0v-2.8h21.856v2.8a2.673,2.673,0,1,0,5.347,0v-2.8Z" transform="translate(-536.355 -1331.185)" fill="#171f58"/>
    </g>
  </g>
  <g id="Group_2717" data-name="Group 2717" transform="translate(9.855 29.453)">
    <path id="Path_672" data-name="Path 672" d="M552.338,1350.09h-2.363a2.681,2.681,0,0,1,0-5.363h2.363a2.681,2.681,0,0,1,0,5.363Z" transform="translate(-533.422 -1344.727)" fill="#171f58"/>
    <path id="Path_673" data-name="Path 673" d="M552.338,1354.616h-2.363a2.682,2.682,0,0,1,0-5.363h2.363a2.682,2.682,0,0,1,0,5.363Z" transform="translate(-533.422 -1339.41)" fill="#171f58"/>
    <path id="Path_674" data-name="Path 674" d="M558.739,1354.616h-2.363a2.682,2.682,0,0,1,0-5.363h2.363a2.682,2.682,0,0,1,0,5.363Z" transform="translate(-525.944 -1339.41)" fill="#171f58"/>
    <path id="Path_675" data-name="Path 675" d="M552.338,1359.143h-2.363a2.683,2.683,0,0,1,0-5.365h2.363a2.683,2.683,0,0,1,0,5.365Z" transform="translate(-533.422 -1334.094)" fill="#171f58"/>
    <path id="Path_676" data-name="Path 676" d="M558.739,1350.09h-2.363a2.681,2.681,0,0,1,0-5.363h2.363a2.681,2.681,0,0,1,0,5.363Z" transform="translate(-525.944 -1344.727)" fill="#171f58"/>
    <path id="Path_677" data-name="Path 677" d="M545.939,1350.09h-2.366a2.681,2.681,0,0,1,0-5.363h2.366a2.681,2.681,0,0,1,0,5.363Z" transform="translate(-540.9 -1344.727)" fill="#171f58"/>
    <path id="Path_678" data-name="Path 678" d="M545.939,1354.616h-2.366a2.682,2.682,0,0,1,0-5.363h2.366a2.682,2.682,0,0,1,0,5.363Z" transform="translate(-540.9 -1339.41)" fill="#171f58"/>
    <path id="Path_679" data-name="Path 679" d="M545.939,1359.143h-2.366a2.683,2.683,0,0,1,0-5.365h2.366a2.683,2.683,0,0,1,0,5.365Z" transform="translate(-540.9 -1334.094)" fill="#171f58"/>
  </g>
  <path id="Path_680" data-name="Path 680" d="M539.029,1346.733a2.68,2.68,0,0,1,2.676,2.684v.2a2.675,2.675,0,1,1-5.349,0v-.2A2.679,2.679,0,0,1,539.029,1346.733Z" transform="translate(-536.355 -1312.919)" fill="#171f58"/>
  <path id="Path_681" data-name="Path 681" d="M539.029,1349.769a2.678,2.678,0,0,1,2.676,2.681v17.9a2.675,2.675,0,1,1-5.349,0v-17.9A2.677,2.677,0,0,1,539.029,1349.769Z" transform="translate(-536.355 -1309.354)" fill="#171f58"/>
</svg>
