<svg xmlns="http://www.w3.org/2000/svg" width="47.31" height="65" viewBox="0 0 47.31 65">
  <g id="icon-location" transform="translate(0.5 0.5)">
    <g id="Group_2752" data-name="Group 2752">
      <path id="Path_715" data-name="Path 715" d="M437.964,1511.17c-6.709,0-23.155-29.091-23.155-40.956a21.62,21.62,0,0,1,3.123-11.607,1.682,1.682,0,0,1,2.3-.557,1.661,1.661,0,0,1,.559,2.291,18.117,18.117,0,0,0-2.636,9.873c0,11.724,16.212,37.228,19.824,37.624,3-.806,19.791-25.761,19.791-37.624a19.782,19.782,0,0,0-19.808-19.713,18.437,18.437,0,0,0-10.064,2.612,1.677,1.677,0,0,1-2.3-.542,1.66,1.66,0,0,1,.544-2.292,21.929,21.929,0,0,1,11.824-3.11,23.126,23.126,0,0,1,23.155,23.044C461.119,1481.315,444.239,1511.17,437.964,1511.17Z" transform="translate(-414.809 -1447.17)" fill="#171f58" stroke="#171f58" stroke-width="1"/>
      <path id="Path_716" data-name="Path 716" d="M420.052,1454.3a1.666,1.666,0,0,1-1.206-2.815l.125-.132a1.666,1.666,0,0,1,2.414,2.3l-.125.131A1.663,1.663,0,0,1,420.052,1454.3Z" transform="translate(-412.426 -1444.726)" fill="#171f58" stroke="#171f58" stroke-width="1"/>
    </g>
    <path id="Path_717" data-name="Path 717" d="M433.439,1476.75a11.721,11.721,0,1,1,11.83-11.721A11.789,11.789,0,0,1,433.439,1476.75Zm0-20.11a8.389,8.389,0,1,0,8.466,8.389A8.436,8.436,0,0,0,433.439,1456.64Z" transform="translate(-410.282 -1443.083)" fill="#171f58" stroke="#171f58" stroke-width="1"/>
  </g>
</svg>
