<svg id="logo-installers" xmlns="http://www.w3.org/2000/svg" width="290" height="100" viewBox="0 0 290 100">
  <g id="Group_2761" data-name="Group 2761">
    <g id="Group_2796" data-name="Group 2796" transform="translate(0 37.254)">
      <path id="Path_796" data-name="Path 796" d="M13.5,96.819l7.483-35.186H36.1a7.857,7.857,0,0,1,3.693.842,8.543,8.543,0,0,1,2.725,2.23,10.128,10.128,0,0,1,1.71,3.172,11.535,11.535,0,0,1,.6,3.667,11.824,11.824,0,0,1-.571,3.618,14.764,14.764,0,0,1-1.585,3.394,15.273,15.273,0,0,1-2.429,2.949,14.065,14.065,0,0,1-3.1,2.229l4.51,13.084H32.481L28.615,85.471H24.006L21.627,96.819ZM32.283,78.384a2.753,2.753,0,0,0,1.487-.471,4.928,4.928,0,0,0,1.338-1.288,7.269,7.269,0,0,0,1.338-4.237,4.5,4.5,0,0,0-.693-2.627,2.023,2.023,0,0,0-1.685-.991H27.574l-2.031,9.615Z" transform="translate(-13.5 -60.642)" fill="#fff"/>
      <path id="Path_797" data-name="Path 797" d="M68.525,101.016a12.132,12.132,0,0,1-4.56-.817,9.968,9.968,0,0,1-3.443-2.255,9.547,9.547,0,0,1-2.156-3.469,12.878,12.878,0,0,1-.744-4.46A15.191,15.191,0,0,1,58.91,83.82a15.822,15.822,0,0,1,3.568-5.1,17.078,17.078,0,0,1,11.894-4.708,11.464,11.464,0,0,1,7.062,1.933,6.49,6.49,0,0,1,2.552,5.5,6.982,6.982,0,0,1-3.865,6.443q-3.866,2.181-11.6,2.18H67.211q-.67,0-1.362-.049a6.88,6.88,0,0,0,.941,3.964,3.605,3.605,0,0,0,3.171,1.339,6.656,6.656,0,0,0,3.3-.842,6.775,6.775,0,0,0,2.453-2.33l6.244,1.983a13.92,13.92,0,0,1-2.527,2.8,17.46,17.46,0,0,1-3.246,2.18,17.017,17.017,0,0,1-3.717,1.412A16.013,16.013,0,0,1,68.525,101.016Zm4.559-21.31a5.369,5.369,0,0,0-3.84,1.536,10.312,10.312,0,0,0-2.5,3.915h1.784a17.253,17.253,0,0,0,6.1-.744,2.427,2.427,0,0,0,1.735-2.279,2.061,2.061,0,0,0-.917-1.784A4,4,0,0,0,73.084,79.706Z" transform="translate(-26.698 -64.343)" fill="#fff"/>
      <path id="Path_798" data-name="Path 798" d="M106.226,101.016a9.16,9.16,0,0,1-3.891-.793,8.31,8.31,0,0,1-2.9-2.206,9.749,9.749,0,0,1-1.809-3.345,13.722,13.722,0,0,1-.62-4.213,17.156,17.156,0,0,1,1.165-6.269,18.009,18.009,0,0,1,3.1-5.254,15,15,0,0,1,4.509-3.593,11.574,11.574,0,0,1,5.4-1.338,7.164,7.164,0,0,1,4.311,1.289,6.641,6.641,0,0,1,2.478,3.469l.893-4.113h7.979L123.174,91.6c-.033.231-.057.421-.074.57a4.194,4.194,0,0,0-.025.47q0,1.141,1.238,1.19l-1.388,6.69a16.586,16.586,0,0,1-1.958.322q-.817.074-1.412.074a5.428,5.428,0,0,1-3.073-.767,2.85,2.85,0,0,1-1.14-2.553,9.08,9.08,0,0,1,.149-1.388,11.84,11.84,0,0,1-4.287,3.618A11.313,11.313,0,0,1,106.226,101.016Zm3.568-6.69a5.662,5.662,0,0,0,3.023-.966,9.077,9.077,0,0,0,2.676-2.652l1.14-5.451a5.459,5.459,0,0,0-1.487-3.246,3.855,3.855,0,0,0-2.824-1.264,5.2,5.2,0,0,0-2.6.718,8.088,8.088,0,0,0-2.23,1.883,9.271,9.271,0,0,0-1.536,2.676,8.839,8.839,0,0,0-.571,3.148,5.736,5.736,0,0,0,1.165,3.691A3.916,3.916,0,0,0,109.794,94.326Z" transform="translate(-38.515 -64.343)" fill="#fff"/>
      <path id="Path_799" data-name="Path 799" d="M149.64,96.892a9.159,9.159,0,0,1-3.891-.793,8.3,8.3,0,0,1-2.9-2.206,9.725,9.725,0,0,1-1.809-3.345,13.722,13.722,0,0,1-.62-4.213,17.155,17.155,0,0,1,1.164-6.269,18.038,18.038,0,0,1,3.1-5.254,15.006,15.006,0,0,1,4.51-3.593,11.571,11.571,0,0,1,5.4-1.338,7.162,7.162,0,0,1,4.311,1.289,6.639,6.639,0,0,1,2.478,3.469l3.073-14.422h7.979l-5.849,27.257c-.033.231-.057.421-.074.57a4.029,4.029,0,0,0-.025.47q0,1.141,1.239,1.19l-1.388,6.69a16.612,16.612,0,0,1-1.958.322q-.818.074-1.412.074a5.711,5.711,0,0,1-3.073-.743,2.643,2.643,0,0,1-1.189-2.429,7.759,7.759,0,0,1,.2-1.536A11.829,11.829,0,0,1,154.62,95.7,11.31,11.31,0,0,1,149.64,96.892Zm3.568-6.69a5.666,5.666,0,0,0,3.024-.966,9.075,9.075,0,0,0,2.675-2.652l1.14-5.451a5.463,5.463,0,0,0-1.487-3.246,3.857,3.857,0,0,0-2.825-1.264,5.2,5.2,0,0,0-2.6.718,8.088,8.088,0,0,0-2.23,1.883,9.272,9.272,0,0,0-1.536,2.676,8.855,8.855,0,0,0-.571,3.148,5.732,5.732,0,0,0,1.166,3.691A3.915,3.915,0,0,0,153.208,90.2Z" transform="translate(-51.521 -60.219)" fill="#fff"/>
      <path id="Path_800" data-name="Path 800" d="M189.317,74.714h7.929l-5.55,26.018h-7.93Z" transform="translate(-64.501 -64.555)" fill="#fff"/>
      <path id="Path_801" data-name="Path 801" d="M220.4,97.032a10.546,10.546,0,0,1-5.2-1.264,12.061,12.061,0,0,1-3.841-3.345,15.315,15.315,0,0,1-2.379-4.757,18.715,18.715,0,0,1-.818-5.5,19.19,19.19,0,0,1,1.512-7.31,23.17,23.17,0,0,1,4.188-6.69,22.073,22.073,0,0,1,6.344-4.906,17.132,17.132,0,0,1,8.029-1.908,11.326,11.326,0,0,1,7.211,2.131,9.885,9.885,0,0,1,3.543,5.55l-3.122,1.685a8.517,8.517,0,0,0-1.313-2.923,7.674,7.674,0,0,0-2.007-1.933,7.869,7.869,0,0,0-2.478-1.065,11.369,11.369,0,0,0-2.675-.322,12.891,12.891,0,0,0-6.369,1.611,17.08,17.08,0,0,0-4.981,4.162,19.957,19.957,0,0,0-3.246,5.675,17.377,17.377,0,0,0-1.165,6.1A15.39,15.39,0,0,0,212.3,86.6a12.179,12.179,0,0,0,1.908,3.791,9.033,9.033,0,0,0,3.023,2.577,8.463,8.463,0,0,0,4.014.942,12.734,12.734,0,0,0,2.949-.372,13,13,0,0,0,3.1-1.189,16.959,16.959,0,0,0,2.973-2.032,13.581,13.581,0,0,0,2.577-2.949l2.577,1.487a15.2,15.2,0,0,1-3,3.494,19.3,19.3,0,0,1-3.791,2.553,19.966,19.966,0,0,1-4.163,1.585A16.384,16.384,0,0,1,220.4,97.032Z" transform="translate(-71.813 -60.557)" fill="#fff"/>
      <path id="Path_802" data-name="Path 802" d="M258.126,60.219h3.37l-3.469,16.205a15.7,15.7,0,0,1,5.031-4.609,11.921,11.921,0,0,1,5.971-1.685q3.171,0,4.535,1.759a7.709,7.709,0,0,1,1.362,4.832,22.9,22.9,0,0,1-.545,4.56L271.21,96.4h-3.37l3.073-14.422a18.653,18.653,0,0,0,.446-3.766q0-5.005-4.213-5.006a7.527,7.527,0,0,0-2.775.57,12.757,12.757,0,0,0-2.8,1.561,15.2,15.2,0,0,0-2.527,2.33,12.586,12.586,0,0,0-1.908,2.923L253.815,96.4h-3.37Z" transform="translate(-84.477 -60.219)" fill="#fff"/>
      <path id="Path_803" data-name="Path 803" d="M297.441,101.122a8.334,8.334,0,0,1-3.865-.867A8.789,8.789,0,0,1,290.7,97.9a10.533,10.533,0,0,1-1.809-3.444,13.616,13.616,0,0,1-.62-4.139,15.417,15.417,0,0,1,1.189-5.947,17.977,17.977,0,0,1,3.171-5.1,15.807,15.807,0,0,1,4.56-3.568,11.563,11.563,0,0,1,5.4-1.338,7.728,7.728,0,0,1,5.154,1.71,9.329,9.329,0,0,1,2.874,4.138l1.189-5.4h3.37l-4.56,21.409a2.762,2.762,0,0,0-.1.644q0,.794.941.793l-.644,2.974c-.265.032-.512.066-.744.1a4.335,4.335,0,0,1-.594.05,2.843,2.843,0,0,1-1.709-.62,1.756,1.756,0,0,1-.57-1.362,5.776,5.776,0,0,1,.124-1.041q.123-.643.421-2.131a14.912,14.912,0,0,1-4.782,4.014A11.722,11.722,0,0,1,297.441,101.122Zm1.388-2.973a8.241,8.241,0,0,0,2.677-.5,12.154,12.154,0,0,0,2.75-1.362,12.676,12.676,0,0,0,2.379-2.032,7.633,7.633,0,0,0,1.561-2.5l1.636-7.979a6.624,6.624,0,0,0-.793-2.5,8.032,8.032,0,0,0-1.585-2.032,7.665,7.665,0,0,0-2.131-1.388,6.123,6.123,0,0,0-2.478-.521,8.594,8.594,0,0,0-4.237,1.115,12.616,12.616,0,0,0-3.519,2.9,14.473,14.473,0,0,0-2.4,4.014,11.918,11.918,0,0,0-.893,4.461,10.342,10.342,0,0,0,.5,3.246,7.745,7.745,0,0,0,1.437,2.626,7.266,7.266,0,0,0,2.23,1.784A6.144,6.144,0,0,0,298.829,98.149Z" transform="translate(-95.81 -64.449)" fill="#fff"/>
      <path id="Path_804" data-name="Path 804" d="M334.877,74.976h3.172l-1.338,6.195a16.708,16.708,0,0,1,4.386-4.485,9.5,9.5,0,0,1,4.98-1.759q.4,0,.669.025c.181.017.355.042.52.074l-.644,2.924a11.565,11.565,0,0,0-6,1.883,13.081,13.081,0,0,0-4.46,4.906L332.8,100.8h-3.37Z" transform="translate(-108.133 -64.619)" fill="#fff"/>
      <path id="Path_805" data-name="Path 805" d="M358.825,111.678a14.626,14.626,0,0,1-3.717-.421,10.089,10.089,0,0,1-2.775-1.166,7.358,7.358,0,0,1-2.007-1.833,9.6,9.6,0,0,1-1.313-2.429l2.379-1.636a6.675,6.675,0,0,0,3.073,3.642A10.067,10.067,0,0,0,359.37,109a11.686,11.686,0,0,0,3.469-.52,10.694,10.694,0,0,0,3.1-1.536,9.573,9.573,0,0,0,2.429-2.577,10.769,10.769,0,0,0,1.462-3.643l1.09-5.1a13.627,13.627,0,0,1-2.131,2.229,13.98,13.98,0,0,1-2.527,1.685,13.5,13.5,0,0,1-2.726,1.066,10.522,10.522,0,0,1-2.726.371,8.074,8.074,0,0,1-3.791-.867,8.738,8.738,0,0,1-2.824-2.329,10.208,10.208,0,0,1-1.76-3.4,13.748,13.748,0,0,1-.594-4.064,15.3,15.3,0,0,1,1.189-5.9,17.67,17.67,0,0,1,3.2-5.1,16.3,16.3,0,0,1,4.634-3.593,11.886,11.886,0,0,1,5.55-1.362,7.568,7.568,0,0,1,5.105,1.66,11.865,11.865,0,0,1,3.073,4.188l1.14-5.4H378.7l-5.5,25.919a13.692,13.692,0,0,1-1.983,4.783,13.1,13.1,0,0,1-3.32,3.42,14.581,14.581,0,0,1-4.262,2.057A16.777,16.777,0,0,1,358.825,111.678Zm3.568-13.529a8.325,8.325,0,0,0,2.874-.545,11.7,11.7,0,0,0,2.775-1.462,12.988,12.988,0,0,0,2.28-2.057,7.679,7.679,0,0,0,1.437-2.329l1.685-7.979A7.632,7.632,0,0,0,372.6,81.2a7.732,7.732,0,0,0-1.561-2.032,7.171,7.171,0,0,0-2.106-1.338,6.388,6.388,0,0,0-2.478-.5,8.771,8.771,0,0,0-4.362,1.14,12.655,12.655,0,0,0-3.544,2.949,14.452,14.452,0,0,0-2.379,4.015,11.792,11.792,0,0,0-.867,4.336,10.339,10.339,0,0,0,.5,3.246,8.023,8.023,0,0,0,1.437,2.651,7.025,7.025,0,0,0,2.255,1.809A6.3,6.3,0,0,0,362.393,98.149Z" transform="translate(-114.022 -64.449)" fill="#fff"/>
      <path id="Path_806" data-name="Path 806" d="M403.521,101.122a10.164,10.164,0,0,1-4.237-.842,8.808,8.808,0,0,1-3.122-2.329,10.462,10.462,0,0,1-1.933-3.469,13.228,13.228,0,0,1-.669-4.262,15.217,15.217,0,0,1,1.189-5.922,16.636,16.636,0,0,1,3.27-5.055,16.148,16.148,0,0,1,4.931-3.544,14.33,14.33,0,0,1,6.17-1.338,11.252,11.252,0,0,1,3.2.446,7.865,7.865,0,0,1,2.626,1.313A6.156,6.156,0,0,1,416.7,78.3a6.73,6.73,0,0,1,.644,3,6.235,6.235,0,0,1-3.37,5.749q-3.37,1.932-10.407,1.933-1.389,0-3-.05t-3.494-.2q-.049.4-.074.743c-.018.232-.025.463-.025.694a11.245,11.245,0,0,0,.446,3.2,8.126,8.126,0,0,0,1.338,2.676,6.339,6.339,0,0,0,2.23,1.834,6.9,6.9,0,0,0,3.122.669,8.99,8.99,0,0,0,2.429-.347,10.839,10.839,0,0,0,2.353-.966,10.175,10.175,0,0,0,2.057-1.512,9.148,9.148,0,0,0,1.586-1.983l2.775.843a13.216,13.216,0,0,1-2.18,2.651,14.151,14.151,0,0,1-2.85,2.081,14.736,14.736,0,0,1-3.271,1.338A13.1,13.1,0,0,1,403.521,101.122Zm5.253-24.134a10.136,10.136,0,0,0-4.064.793,12,12,0,0,0-3.271,2.081,12.469,12.469,0,0,0-2.428,2.974,14.459,14.459,0,0,0-1.487,3.469q1.784.1,3.3.173t2.9.075a26.312,26.312,0,0,0,4.956-.4,11.106,11.106,0,0,0,3.271-1.091,4.412,4.412,0,0,0,1.784-1.685,4.349,4.349,0,0,0,.545-2.131A3.537,3.537,0,0,0,412.64,78,7.181,7.181,0,0,0,408.774,76.988Z" transform="translate(-127.347 -64.449)" fill="#fff"/>
    </g>
    <g id="Group_2797" data-name="Group 2797" transform="translate(125.448)">
      <path id="Union_2" data-name="Union 2" d="M196.938,52.141l4.152-19.713-7.607-1.583,17.4-21.758-4.226,19.979,7.293,1.522Z" transform="translate(-192.861 -7.901)" fill="#141e5a"/>
      <path id="Union_2-2" data-name="Union 2" d="M196.269,50.1l4.085-19.535L192.6,28.946,209.618,7.395l-4.085,19.536,7.75,1.62Z" transform="translate(-192.596 -7.395)" fill="#94d034"/>
      <path id="Union_2-3" data-name="Union 2" d="M200.355,30.569,192.6,28.946,209.618,7.395Z" transform="translate(-192.596 -7.395)" fill="#d2ff00"/>
      <path id="Union_2-4" data-name="Union 2" d="M207.1,35.269l7.75,1.62L197.837,58.442Z" transform="translate(-194.164 -15.733)" fill="#509632"/>
    </g>
  </g>
  <text id="INSTALLERS" transform="translate(148.479 95)" fill="#96d232" font-size="21" font-family="Montserrat-SemiBold, Montserrat" font-weight="600"><tspan x="-66" y="0">INSTALLERS</tspan></text>
</svg>
