<svg width="290" height="100" viewBox="0 0 290 100" xmlns="http://www.w3.org/2000/svg" xmlns:xlink="http://www.w3.org/1999/xlink">
    <g id="Group2761">
        <g id="Group2796">
            <path id="Path796" fill="#ffffff" stroke="none" d="M 0 73.431 L 7.483 38.244999 L 22.599998 38.244999 C 23.881245 38.220303 25.149086 38.509365 26.292999 39.086998 C 27.346329 39.633045 28.274372 40.392506 29.018002 41.317001 C 29.773029 42.263611 30.352196 43.337952 30.728001 44.488998 C 31.124855 45.670876 31.327484 46.909271 31.327999 48.155998 C 31.326752 49.384338 31.134106 50.60498 30.757 51.774002 C 30.374908 52.96804 29.842293 54.108551 29.172001 55.167999 C 28.48896 56.248795 27.672909 57.23954 26.743 58.116997 C 25.815788 58.997452 24.772846 59.74736 23.643002 60.346001 L 28.153 73.43 L 18.980999 73.43 L 15.115 62.083 L 10.506001 62.083 L 8.127001 73.431 Z M 18.783001 54.996002 C 19.313709 54.985641 19.830105 54.822075 20.27 54.525002 C 20.793602 54.184349 21.247662 53.747253 21.608002 53.237 C 22.485298 51.99894 22.953163 50.517365 22.945999 49 C 22.991173 48.073845 22.749138 47.156357 22.252998 46.373001 C 21.898796 45.775208 21.262585 45.401039 20.568001 45.381996 L 14.073999 45.381996 L 12.042999 54.997002 Z"/>
            <path id="Path797" fill="#ffffff" stroke="none" d="M 41.827 73.927002 C 40.268627 73.950089 38.720409 73.672699 37.266998 73.110001 C 35.97496 72.606033 34.802299 71.837997 33.823997 70.854996 C 32.863499 69.867737 32.128002 68.684326 31.668001 67.386002 C 31.158903 65.954849 30.907022 64.444916 30.924002 62.925999 C 30.91374 60.793484 31.352594 58.682705 32.211998 56.730999 C 33.051922 54.811527 34.264717 53.077991 35.779999 51.631001 C 38.985012 48.580036 43.249119 46.892178 47.674 46.923 C 50.176006 46.77808 52.656574 47.457058 54.735996 48.855999 C 56.443401 50.154865 57.39864 52.213558 57.287998 54.355999 C 57.363537 57.07288 55.855572 59.586674 53.423 60.799 C 50.845665 62.252998 46.978996 62.979668 41.823002 62.979 L 40.512997 62.979 C 40.06633 62.979 39.612331 62.962666 39.150997 62.929996 C 39.05727 64.316025 39.385326 65.697968 40.091999 66.893997 C 40.853901 67.848724 42.047413 68.352692 43.262997 68.233002 C 44.417408 68.243271 45.55463 67.953094 46.563 67.391006 C 47.564548 66.834274 48.408527 66.032608 49.015995 65.061005 L 55.259998 67.044006 C 54.548595 68.087662 53.69846 69.029633 52.732998 69.843994 C 51.736034 70.689911 50.647205 71.421158 49.486996 72.024002 C 48.30743 72.63829 47.059917 73.112198 45.77 73.436005 C 44.481144 73.762726 43.15662 73.927673 41.827 73.927002 Z M 46.385998 52.617001 C 44.952244 52.595676 43.56953 53.148762 42.546001 54.152996 C 41.425762 55.250881 40.570736 56.589848 40.046001 58.067997 L 41.829998 58.067997 C 43.891468 58.187031 45.957569 57.93504 47.929996 57.324001 C 48.942738 57.022953 49.644367 56.10133 49.664997 55.045002 C 49.688854 54.331669 49.341946 53.656773 48.747997 53.260998 C 48.047321 52.804745 47.221287 52.579525 46.385998 52.617001 Z"/>
            <path id="Path798" fill="#ffffff" stroke="none" d="M 67.710999 73.927002 C 66.37162 73.950363 65.043411 73.679672 63.82 73.134003 C 62.702042 72.622253 61.711571 71.86882 60.919998 70.927994 C 60.103271 69.942551 59.488579 68.805939 59.111 67.582993 C 58.686363 66.219482 58.477173 64.798035 58.490997 63.369999 C 58.484177 61.225895 58.879333 59.099506 59.655998 57.101002 C 60.383034 55.186123 61.431404 53.409298 62.756004 51.846996 C 64.012527 50.36903 65.543808 49.14883 67.264999 48.254002 C 68.929443 47.375591 70.78299 46.916325 72.665001 46.915997 C 74.20314 46.871525 75.714729 47.323498 76.975998 48.204998 C 78.160789 49.057583 79.031685 50.27676 79.454002 51.674 L 80.347 47.561001 L 88.326004 47.561001 L 84.659004 64.511002 C 84.625999 64.742004 84.601997 64.932007 84.584999 65.080994 C 84.567879 65.237076 84.559532 65.393982 84.559998 65.550995 C 84.559998 66.311661 84.972664 66.708328 85.798004 66.740997 L 84.410004 73.431 C 83.764343 73.577316 83.110512 73.684845 82.452003 73.753006 C 81.907333 73.802338 81.436668 73.826996 81.040001 73.826996 C 79.962196 73.882523 78.892303 73.615479 77.967003 73.059998 C 77.167 72.466675 76.734787 71.498734 76.827003 70.507004 C 76.840973 70.041199 76.890793 69.577164 76.975998 69.119003 C 75.857452 70.651001 74.387192 71.891815 72.689003 72.737 C 71.142365 73.508743 69.439453 73.915833 67.710999 73.927002 Z M 71.278999 67.237 C 72.358154 67.209763 73.407021 66.874588 74.302002 66.270996 C 75.369659 65.583878 76.281296 64.68042 76.977997 63.618999 L 78.118004 58.168003 C 78.000183 56.949909 77.476494 55.806736 76.631004 54.922001 C 75.907455 54.124828 74.883537 53.666523 73.806999 53.658001 C 72.892265 53.664478 71.99543 53.912144 71.207001 54.375996 C 70.355629 54.863239 69.599998 55.501293 68.976997 56.258999 C 68.319122 57.058941 67.799927 57.963467 67.441002 58.935001 C 67.06076 59.940861 66.867256 61.007671 66.870003 62.082996 C 66.81897 63.411152 67.230759 64.715805 68.035004 65.774002 C 68.819511 66.753204 70.025734 67.297195 71.278999 67.237 Z"/>
            <path id="Path799" fill="#ffffff" stroke="none" d="M 98.118996 73.927002 C 96.77961 73.950394 95.451393 73.679703 94.227989 73.134003 C 93.109871 72.622543 92.119331 71.869064 91.327995 70.927994 C 90.51075 69.942917 89.895988 68.806183 89.51899 67.582993 C 89.094353 66.219482 88.88517 64.798035 88.898994 63.369999 C 88.891838 61.225956 89.286644 59.099567 90.062996 57.101002 C 90.790535 55.186367 91.83886 53.409634 93.163002 51.846996 C 94.419914 50.369038 95.95153 49.148853 97.672997 48.254002 C 99.337395 47.375484 101.190971 46.91621 103.07299 46.915997 C 104.611153 46.871387 106.12278 47.323368 107.383995 48.204998 C 108.568901 49.057476 109.439812 50.276699 109.861992 51.674 L 112.93499 37.251999 L 120.913994 37.251999 L 115.064995 64.509003 C 115.03199 64.740005 115.008003 64.929993 114.99099 65.078995 C 114.973518 65.235046 114.965157 65.391983 114.965996 65.548996 C 114.965996 66.309662 115.378998 66.706329 116.204994 66.738998 L 114.816994 73.429001 C 114.171333 73.575256 113.517494 73.682785 112.859001 73.751007 C 112.31366 73.800339 111.842995 73.824997 111.446999 73.824997 C 110.373161 73.871445 109.308006 73.613907 108.374001 73.082001 C 107.562065 72.551773 107.105721 71.619476 107.18499 70.653 C 107.200264 70.135605 107.267265 69.621048 107.385002 69.117004 C 106.267052 70.64917 104.797066 71.890045 103.098991 72.735001 C 101.551964 73.507843 99.848289 73.915619 98.118996 73.927002 Z M 101.686989 67.237 C 102.766457 67.209732 103.815636 66.874573 104.710991 66.270996 C 105.778328 65.583817 106.689629 64.680359 107.385994 63.618999 L 108.525993 58.168003 C 108.407875 56.949993 107.884224 55.806919 107.038994 54.922001 C 106.315071 54.124775 105.290825 53.666492 104.213997 53.658001 C 103.299263 53.664478 102.402428 53.912144 101.613991 54.376003 C 100.762627 54.863239 100.006996 55.501293 99.383995 56.258999 C 98.726128 57.058949 98.206947 57.963474 97.848 58.935001 C 97.468102 59.94096 97.27462 61.007702 97.277 62.082996 C 97.225914 63.411312 97.6381 64.716095 98.443001 65.774002 C 99.227821 66.752594 100.434044 67.295837 101.686989 67.235001 Z"/>
            <path id="Path800" fill="#ffffff" stroke="none" d="M 124.816002 47.412998 L 132.744995 47.412998 L 127.195 73.431 L 119.265007 73.431 Z"/>
            <path id="Path801" fill="#ffffff" stroke="none" d="M 148.58699 73.728996 C 146.773819 73.761765 144.982819 73.326416 143.386993 72.464996 C 141.883148 71.636139 140.573608 70.495712 139.54599 69.119995 C 138.481613 67.685219 137.676483 66.075279 137.166992 64.362999 C 136.621979 62.580627 136.346268 60.726837 136.348999 58.862999 C 136.369644 56.350853 136.883362 53.867203 137.860992 51.553001 C 138.864105 49.099892 140.280655 46.837067 142.048996 44.862999 C 143.846344 42.854004 145.996506 41.191231 148.39299 39.956997 C 150.873871 38.676266 153.630173 38.021263 156.421997 38.049 C 158.998199 37.917431 161.542145 38.669216 163.632996 40.18 C 165.413544 41.57074 166.663956 43.529465 167.175995 45.729996 L 164.054001 47.415001 C 163.805206 46.366371 163.359665 45.374481 162.740997 44.491997 C 162.195557 43.730583 161.51535 43.075455 160.733994 42.558998 C 159.975449 42.064034 159.137131 41.703735 158.255997 41.493996 C 157.380249 41.281013 156.482269 41.17292 155.580994 41.171997 C 153.354492 41.14994 151.160233 41.704964 149.21199 42.782997 C 147.300888 43.839188 145.610031 45.252029 144.231003 46.945 C 142.844406 48.64537 141.747681 50.562759 140.985001 52.619995 C 140.233521 54.566879 139.838898 56.633209 139.819992 58.720001 C 139.810486 60.270554 140.035355 61.813644 140.487 63.296997 C 140.896225 64.662598 141.542023 65.94574 142.394989 67.087997 C 143.198959 68.160667 144.231598 69.040947 145.417999 69.665001 C 146.657883 70.305107 148.036804 70.628708 149.431992 70.607002 C 150.426147 70.598541 151.415894 70.473694 152.380997 70.235001 C 153.460907 69.972794 154.502731 69.573204 155.481003 69.045998 C 156.541306 68.476097 157.537918 67.794922 158.453995 67.014 C 159.450958 66.160667 160.318985 65.167343 161.030991 64.064995 L 163.608002 65.552002 C 162.79126 66.862274 161.779648 68.040459 160.608002 69.045998 C 159.449905 70.044151 158.177322 70.901154 156.817001 71.598999 C 155.492798 72.28096 154.096436 72.812599 152.653992 73.183998 C 151.326523 73.535378 149.960144 73.718483 148.58699 73.728996 Z"/>
            <path id="Path802" fill="#ffffff" stroke="none" d="M 173.649002 37.254002 L 177.018997 37.254002 L 173.550003 53.459003 C 174.868851 51.572437 176.586411 49.998951 178.581009 48.850002 C 180.387711 47.771175 182.44783 47.189816 184.551987 47.164997 C 186.666 47.164997 188.177673 47.751331 189.08699 48.924 C 190.067429 50.337582 190.54686 52.038479 190.44899 53.756001 C 190.420578 55.290424 190.237991 56.818104 189.904007 58.315998 L 186.732986 73.434998 L 183.362991 73.434998 L 186.435989 59.012997 C 186.712204 57.776081 186.861649 56.514225 186.882004 55.246998 C 186.882004 51.910332 185.477661 50.241669 182.668991 50.241001 C 181.716263 50.253651 180.774582 50.447071 179.893997 50.811001 C 178.898727 51.211529 177.957993 51.736004 177.094009 52.371998 C 176.166275 53.050625 175.318527 53.832287 174.567001 54.702 C 173.798325 55.582981 173.156143 56.566776 172.658981 57.624996 L 169.337997 73.434998 L 165.968002 73.434998 Z"/>
            <path id="Path803" fill="#ffffff" stroke="none" d="M 201.631012 73.927002 C 200.291718 73.952812 198.965942 73.655411 197.765991 73.059998 C 196.650391 72.489021 195.6698 71.686066 194.890015 70.705002 C 194.0784 69.679276 193.464935 68.51136 193.080994 67.261002 C 192.662262 65.921532 192.453125 64.525375 192.460999 63.122002 C 192.459686 61.080498 192.863831 59.059059 193.649994 57.175003 C 194.413574 55.309227 195.485504 53.585175 196.821014 52.074997 C 198.108368 50.615051 199.654297 49.405434 201.381012 48.507004 C 203.045288 47.628181 204.898926 47.168884 206.781006 47.168999 C 208.649292 47.096764 210.480438 47.7043 211.934998 48.878998 C 213.254364 49.968651 214.248627 51.400192 214.80899 53.016998 L 215.998016 47.616997 L 219.368011 47.616997 L 214.808014 69.026001 C 214.749359 69.23597 214.71579 69.452141 214.708008 69.669998 C 214.708008 70.199333 215.021683 70.463661 215.649017 70.462997 L 215.005005 73.437004 C 214.73999 73.469002 214.493011 73.502998 214.261017 73.537003 C 214.064392 73.567276 213.865906 73.583984 213.666992 73.586998 C 213.04483 73.572952 212.444458 73.355148 211.958008 72.967003 C 211.577087 72.618813 211.368622 72.120705 211.388 71.605003 C 211.397705 71.254959 211.439209 70.906525 211.511993 70.564003 C 211.594009 70.13533 211.734344 69.424995 211.933014 68.432999 C 210.640106 70.093437 209.010376 71.461418 207.151001 72.446999 C 205.461273 73.388184 203.564911 73.896629 201.631012 73.927002 Z M 203.019012 70.954002 C 203.932892 70.936943 204.837585 70.767975 205.696014 70.454002 C 206.666534 70.118011 207.590576 69.66037 208.446014 69.092003 C 209.319885 68.515503 210.118958 67.832977 210.825012 67.059998 C 211.502808 66.335991 212.03302 65.486832 212.386017 64.559998 L 214.022003 56.581001 C 213.926941 55.70314 213.657318 54.853149 213.229004 54.081001 C 212.813477 53.322769 212.278259 52.636612 211.644012 52.049004 C 211.0159 51.470901 210.295685 51.001778 209.513 50.661003 C 208.73233 50.316566 207.888275 50.139107 207.035004 50.139999 C 205.550049 50.139374 204.090302 50.523521 202.798004 51.254997 C 201.458588 51.999893 200.266113 52.982613 199.278992 54.154999 C 198.266693 55.354042 197.456116 56.70974 196.878998 58.168999 C 196.297638 59.584862 195.994446 61.099457 195.985992 62.629997 C 195.978699 63.731728 196.147491 64.827538 196.485992 65.875999 C 196.789673 66.836456 197.277802 67.728447 197.923004 68.501999 C 198.541016 69.238327 199.298981 69.844704 200.153015 70.286003 C 201.040131 70.737549 202.023651 70.966789 203.019012 70.954002 Z"/>
            <path id="Path804" fill="#ffffff" stroke="none" d="M 226.744019 47.610996 L 229.916016 47.610996 L 228.578003 53.805996 C 229.743713 52.047489 231.231934 50.525669 232.963989 49.320995 C 234.424377 48.275738 236.151123 47.665829 237.944 47.562 C 238.210663 47.562 238.43367 47.570335 238.613007 47.587002 C 238.794006 47.604 238.968018 47.629002 239.132996 47.660999 L 238.489014 50.584995 C 236.353485 50.64642 234.276703 51.298183 232.489014 52.467999 C 230.605682 53.693172 229.069672 55.382786 228.028992 57.373997 L 224.666992 73.435005 L 221.296997 73.435005 Z"/>
            <path id="Path805" fill="#ffffff" stroke="none" d="M 244.803009 84.483002 C 243.551086 84.502342 242.30188 84.360855 241.085999 84.062004 C 240.10791 83.814285 239.172485 83.421242 238.311005 82.896004 C 237.533966 82.41494 236.853363 81.793335 236.303986 81.063004 C 235.751556 80.320831 235.309326 79.502708 234.990997 78.634003 L 237.369995 76.998001 C 237.911346 78.548737 239.005463 79.845436 240.442993 80.639999 C 241.952728 81.438072 243.640656 81.838974 245.347992 81.805 C 246.523895 81.80719 247.69342 81.631882 248.816986 81.285004 C 249.926849 80.944649 250.973877 80.425865 251.916992 79.749001 C 252.879883 79.048538 253.703644 78.174591 254.346008 77.171997 C 255.052399 76.057495 255.547974 74.822647 255.807983 73.528999 L 256.89801 68.429001 C 256.274292 69.250237 255.559387 69.998024 254.766998 70.657997 C 253.988342 71.309776 253.141022 71.874771 252.23999 72.343002 C 251.37265 72.796082 250.458618 73.153519 249.514008 73.408997 C 248.625488 73.651436 247.708984 73.776169 246.787994 73.779999 C 245.472565 73.804184 244.171143 73.506554 242.997009 72.913002 C 241.901794 72.344757 240.939331 71.55101 240.173004 70.584 C 239.377136 69.571808 238.779968 68.41819 238.412994 67.183998 C 238.012634 65.866722 237.812378 64.496765 237.819 63.120003 C 237.820801 61.094009 238.224945 59.088547 239.007996 57.220001 C 239.775055 55.349457 240.857422 53.62442 242.208008 52.120003 C 243.522766 50.652054 245.092834 49.4347 246.84201 48.527 C 248.553711 47.62841 250.458771 47.160896 252.391998 47.165001 C 254.239349 47.075958 256.055328 47.666473 257.497009 48.824997 C 258.818085 49.976883 259.867584 51.407158 260.570007 53.013 L 261.709991 47.612999 L 264.678009 47.612999 L 259.178009 73.531998 C 258.827209 75.237946 258.154175 76.861298 257.195007 78.315002 C 256.306793 79.64843 255.181488 80.807617 253.875 81.735001 C 252.575836 82.648178 251.1362 83.342995 249.613007 83.792 C 248.051697 84.254539 246.431366 84.48732 244.803009 84.483002 Z M 248.371002 70.954002 C 249.353668 70.94339 250.32666 70.758873 251.244995 70.408997 C 252.231415 70.048424 253.164795 69.556679 254.019989 68.946999 C 254.858673 68.353905 255.624023 67.663414 256.299988 66.889999 C 256.914581 66.205971 257.401306 65.417114 257.737 64.560997 L 259.421997 56.582001 C 259.296753 55.679504 259.010895 54.806732 258.578003 54.004997 C 258.174286 53.24556 257.646729 52.5588 257.016998 51.973 C 256.39859 51.407364 255.685791 50.954506 254.911011 50.635002 C 254.126556 50.304932 253.284058 50.134933 252.432983 50.135002 C 250.90451 50.128426 249.400818 50.521416 248.070984 51.275002 C 246.719055 52.0327 245.517792 53.032288 244.527008 54.223999 C 243.521729 55.424614 242.718231 56.780617 242.14801 58.238998 C 241.588165 59.61673 241.294006 61.087929 241.281006 62.574997 C 241.273651 63.676727 241.442444 64.772552 241.781006 65.820999 C 242.088135 66.787552 242.575745 67.687103 243.217987 68.472 C 243.836121 69.224815 244.604034 69.840858 245.472992 70.280998 C 246.371429 70.733482 247.365112 70.964249 248.371002 70.954002 Z"/>
            <path id="Path806" fill="#ffffff" stroke="none" d="M 276.174011 73.927002 C 274.717651 73.953178 273.272705 73.666023 271.937012 73.084999 C 270.735596 72.551376 269.668854 71.755585 268.815002 70.755997 C 267.955109 69.733681 267.29895 68.556137 266.882019 67.287003 C 266.427277 65.912514 266.201294 64.472702 266.213013 63.025002 C 266.209656 60.991379 266.613953 58.977722 267.402008 57.102997 C 268.175507 55.233147 269.283661 53.520103 270.672028 52.047997 C 272.076782 50.565468 273.750031 49.362869 275.603027 48.503998 C 277.534637 47.604858 279.642456 47.147766 281.77301 47.166 C 282.855591 47.15995 283.93335 47.310165 284.973022 47.612 C 285.923004 47.880959 286.813843 48.326385 287.59903 48.925003 C 288.343262 49.507401 288.94342 50.253334 289.353027 51.105003 C 289.795807 52.042068 290.016205 53.068756 289.997009 54.105003 C 290.077881 56.511261 288.766113 58.749054 286.627014 59.854004 C 284.380341 61.142002 280.911346 61.786335 276.220001 61.787003 C 275.294006 61.787003 274.294006 61.770336 273.220001 61.737 C 272.145996 61.703671 270.981354 61.637005 269.726013 61.537003 C 269.693329 61.803669 269.668671 62.051334 269.652008 62.279999 C 269.634003 62.512001 269.627014 62.743004 269.627014 62.973999 C 269.62088 64.056572 269.771088 65.134361 270.073029 66.174004 C 270.349548 67.141121 270.803223 68.0485 271.411011 68.849998 C 272.003387 69.624733 272.76651 70.25235 273.641022 70.683998 C 274.615051 71.148018 275.684357 71.377159 276.763 71.352997 C 277.584747 71.348892 278.402008 71.232132 279.192017 71.005997 C 280.011536 70.777466 280.8013 70.453232 281.545013 70.040001 C 282.291443 69.624359 282.982544 69.116364 283.60202 68.528 C 284.220306 67.943939 284.754089 67.276512 285.188019 66.544998 L 287.963013 67.388 C 287.354675 68.362671 286.621826 69.253853 285.78302 70.039001 C 284.923553 70.848869 283.966125 71.547966 282.933014 72.120003 C 281.900299 72.695602 280.802063 73.144836 279.662018 73.458 C 278.525726 73.770508 277.352478 73.928268 276.174011 73.927002 Z M 281.427002 49.792999 C 280.032227 49.774872 278.648682 50.044838 277.363007 50.585999 C 276.167084 51.097794 275.062347 51.800629 274.09201 52.667 C 273.134003 53.527046 272.314972 54.530266 271.664001 55.640999 C 271.018921 56.727394 270.518982 57.893661 270.177002 59.110001 C 271.366364 59.176666 272.46637 59.234333 273.47702 59.282997 C 274.487671 59.331669 275.454346 59.35667 276.377014 59.358002 C 278.037933 59.381401 279.697357 59.247475 281.333008 58.958 C 282.473511 58.766846 283.577118 58.398743 284.604004 57.866997 C 285.346069 57.485336 285.964661 56.90107 286.388 56.181999 C 286.749268 55.530098 286.936951 54.796295 286.933014 54.051003 C 287.027069 52.749298 286.396667 51.501572 285.29303 50.805 C 284.126068 50.108665 282.785492 49.757744 281.427002 49.792999 Z"/>
        </g>
        <g id="Group2797">
            <path id="Union2" fill="#141e5a" stroke="none" d="M 129.525009 44.239998 L 133.677002 24.527 L 126.07 22.944 L 143.470001 1.185997 L 139.244003 21.165001 L 146.537003 22.686996 Z"/>
            <path id="Union2-2" fill="#94d034" stroke="none" d="M 129.121002 42.704998 L 133.206009 23.169998 L 125.452003 21.551003 L 142.470001 0 L 138.38501 19.536003 L 146.13501 21.155998 Z"/>
            <path id="Union2-3" fill="#d2ff00" stroke="none" d="M 133.207001 23.174004 L 125.452003 21.551003 L 142.470001 0 Z"/>
            <path id="Union2-4" fill="#509632" stroke="none" d="M 138.384003 19.536003 L 146.134003 21.155998 L 129.121002 42.709 Z"/>
        </g>
    </g>
</svg>
