<svg id="rc-logo-admin" xmlns="http://www.w3.org/2000/svg" width="123.821" height="46.989" viewBox="0 0 123.821 46.989">
  <g id="Group_2761" data-name="Group 2761">
    <g id="Group_2796" data-name="Group 2796" transform="translate(0 15.799)">
      <path id="Path_796" data-name="Path 796" d="M13.5,76.648l3.193-15.015h6.45a3.353,3.353,0,0,1,1.576.36,3.645,3.645,0,0,1,1.163.952,4.322,4.322,0,0,1,.73,1.354,4.922,4.922,0,0,1,.254,1.565,5.046,5.046,0,0,1-.243,1.544,6.3,6.3,0,0,1-.677,1.448,6.517,6.517,0,0,1-1.036,1.259,6,6,0,0,1-1.322.951l1.925,5.583H21.6l-1.65-4.843H17.983l-1.015,4.843Zm8.015-7.867a1.175,1.175,0,0,0,.634-.2,2.1,2.1,0,0,0,.571-.55,3.1,3.1,0,0,0,.571-1.808A1.921,1.921,0,0,0,23,65.1a.863.863,0,0,0-.719-.423H19.506l-.867,4.1Z" transform="translate(-13.5 -61.21)" fill="#fff"/>
      <path id="Path_797" data-name="Path 797" d="M62.275,85.533a5.177,5.177,0,0,1-1.946-.349,4.254,4.254,0,0,1-1.469-.962,4.074,4.074,0,0,1-.92-1.48,5.5,5.5,0,0,1-.317-1.9,6.483,6.483,0,0,1,.55-2.644,6.752,6.752,0,0,1,1.523-2.178,7.288,7.288,0,0,1,5.076-2.009,4.892,4.892,0,0,1,3.014.825,2.769,2.769,0,0,1,1.089,2.347,2.979,2.979,0,0,1-1.649,2.749,10.338,10.338,0,0,1-4.949.93h-.56q-.286,0-.581-.021a2.936,2.936,0,0,0,.4,1.692,1.538,1.538,0,0,0,1.353.571,2.841,2.841,0,0,0,1.407-.359,2.891,2.891,0,0,0,1.047-.994l2.665.846a5.94,5.94,0,0,1-1.078,1.195,7.451,7.451,0,0,1-1.385.93,7.261,7.261,0,0,1-1.586.6A6.834,6.834,0,0,1,62.275,85.533Zm1.946-9.094a2.291,2.291,0,0,0-1.639.656,4.4,4.4,0,0,0-1.068,1.671h.761a7.362,7.362,0,0,0,2.6-.317,1.036,1.036,0,0,0,.74-.973.879.879,0,0,0-.391-.761A1.709,1.709,0,0,0,64.22,76.439Z" transform="translate(-44.426 -69.883)" fill="#fff"/>
      <path id="Path_798" data-name="Path 798" d="M100.941,85.533a3.909,3.909,0,0,1-1.661-.338,3.546,3.546,0,0,1-1.237-.941,4.16,4.16,0,0,1-.772-1.427,5.856,5.856,0,0,1-.264-1.8,7.321,7.321,0,0,1,.5-2.675,7.685,7.685,0,0,1,1.322-2.242,6.4,6.4,0,0,1,1.924-1.533,4.939,4.939,0,0,1,2.305-.571,3.057,3.057,0,0,1,1.84.55,2.834,2.834,0,0,1,1.057,1.48l.381-1.755h3.4l-1.565,7.233c-.014.1-.025.179-.032.243a1.791,1.791,0,0,0-.01.2q0,.487.528.508l-.592,2.855a7.075,7.075,0,0,1-.835.138q-.349.031-.6.031a2.316,2.316,0,0,1-1.311-.327,1.216,1.216,0,0,1-.486-1.089,3.877,3.877,0,0,1,.063-.592,5.053,5.053,0,0,1-1.829,1.544A4.827,4.827,0,0,1,100.941,85.533Zm1.523-2.855a2.416,2.416,0,0,0,1.29-.412,3.874,3.874,0,0,0,1.142-1.132l.486-2.326a2.33,2.33,0,0,0-.634-1.385,1.645,1.645,0,0,0-1.205-.539,2.221,2.221,0,0,0-1.111.307,3.451,3.451,0,0,0-.952.8,3.956,3.956,0,0,0-.655,1.142,3.772,3.772,0,0,0-.243,1.343,2.448,2.448,0,0,0,.5,1.575A1.671,1.671,0,0,0,102.464,82.678Z" transform="translate(-72.031 -69.883)" fill="#fff"/>
      <path id="Path_799" data-name="Path 799" d="M144.356,75.869a3.908,3.908,0,0,1-1.66-.338,3.543,3.543,0,0,1-1.237-.941,4.15,4.15,0,0,1-.772-1.427,5.856,5.856,0,0,1-.264-1.8,7.321,7.321,0,0,1,.5-2.675,7.7,7.7,0,0,1,1.322-2.242,6.4,6.4,0,0,1,1.925-1.533,4.938,4.938,0,0,1,2.305-.571,3.056,3.056,0,0,1,1.84.55,2.833,2.833,0,0,1,1.058,1.48l1.311-6.154h3.405l-2.5,11.632c-.014.1-.025.179-.031.243a1.722,1.722,0,0,0-.011.2q0,.487.529.508l-.592,2.855a7.089,7.089,0,0,1-.835.138q-.349.031-.6.031a2.437,2.437,0,0,1-1.311-.317,1.128,1.128,0,0,1-.508-1.036,3.312,3.312,0,0,1,.084-.656,5.047,5.047,0,0,1-1.829,1.544A4.826,4.826,0,0,1,144.356,75.869Zm1.523-2.855a2.418,2.418,0,0,0,1.29-.412,3.873,3.873,0,0,0,1.142-1.132l.487-2.326a2.331,2.331,0,0,0-.634-1.385,1.646,1.646,0,0,0-1.206-.539,2.221,2.221,0,0,0-1.11.307,3.452,3.452,0,0,0-.952.8,3.957,3.957,0,0,0-.656,1.142A3.779,3.779,0,0,0,144,70.814a2.446,2.446,0,0,0,.5,1.575A1.671,1.671,0,0,0,145.878,73.014Z" transform="translate(-102.462 -60.219)" fill="#fff"/>
      <path id="Path_800" data-name="Path 800" d="M186.135,74.714h3.383l-2.368,11.1h-3.384Z" transform="translate(-132.842 -70.379)" fill="#fff"/>
      <path id="Path_801" data-name="Path 801" d="M213.384,76.577a4.5,4.5,0,0,1-2.221-.539,5.147,5.147,0,0,1-1.639-1.428,6.535,6.535,0,0,1-1.015-2.03,7.986,7.986,0,0,1-.349-2.348,8.189,8.189,0,0,1,.645-3.119,9.888,9.888,0,0,1,1.787-2.855,9.419,9.419,0,0,1,2.707-2.094,7.311,7.311,0,0,1,3.426-.814,4.833,4.833,0,0,1,3.077.91,4.218,4.218,0,0,1,1.512,2.368l-1.332.719a3.635,3.635,0,0,0-.56-1.247,3.274,3.274,0,0,0-.857-.825,3.358,3.358,0,0,0-1.058-.455,4.851,4.851,0,0,0-1.142-.138,5.5,5.5,0,0,0-2.718.687,7.289,7.289,0,0,0-2.126,1.776,8.516,8.516,0,0,0-1.385,2.422,7.416,7.416,0,0,0-.5,2.6,6.569,6.569,0,0,0,.286,1.956,5.2,5.2,0,0,0,.814,1.618,3.854,3.854,0,0,0,1.29,1.1,3.611,3.611,0,0,0,1.713.4A5.434,5.434,0,0,0,215,75.086a5.548,5.548,0,0,0,1.322-.508,7.237,7.237,0,0,0,1.269-.867,5.8,5.8,0,0,0,1.1-1.258l1.1.634a6.485,6.485,0,0,1-1.279,1.491,8.236,8.236,0,0,1-1.618,1.089,8.52,8.52,0,0,1-1.777.677A6.991,6.991,0,0,1,213.384,76.577Z" transform="translate(-149.94 -61.012)" fill="#fff"/>
      <path id="Path_802" data-name="Path 802" d="M253.723,60.219h1.438l-1.48,6.915a6.7,6.7,0,0,1,2.147-1.967,5.087,5.087,0,0,1,2.548-.719,2.3,2.3,0,0,1,1.935.751,3.29,3.29,0,0,1,.581,2.062,9.772,9.772,0,0,1-.232,1.946l-1.354,6.45h-1.438l1.311-6.154a7.959,7.959,0,0,0,.19-1.607q0-2.136-1.8-2.136a3.212,3.212,0,0,0-1.184.243,5.444,5.444,0,0,0-1.195.666,6.489,6.489,0,0,0-1.078.994,5.372,5.372,0,0,0-.814,1.247l-1.417,6.746h-1.438Z" transform="translate(-179.579 -60.219)" fill="#fff"/>
      <path id="Path_803" data-name="Path 803" d="M292.185,85.781a3.556,3.556,0,0,1-1.649-.37,3.75,3.75,0,0,1-1.227-1,4.494,4.494,0,0,1-.772-1.47,5.812,5.812,0,0,1-.264-1.766,6.58,6.58,0,0,1,.508-2.538,7.67,7.67,0,0,1,1.353-2.178,6.746,6.746,0,0,1,1.946-1.523,4.934,4.934,0,0,1,2.305-.571,3.3,3.3,0,0,1,2.2.73,3.981,3.981,0,0,1,1.227,1.766l.508-2.305h1.438l-1.946,9.136a1.177,1.177,0,0,0-.042.275q0,.339.4.338l-.275,1.269c-.113.014-.219.028-.317.042a1.85,1.85,0,0,1-.254.022,1.213,1.213,0,0,1-.729-.265.749.749,0,0,1-.243-.581,2.468,2.468,0,0,1,.053-.444q.053-.275.18-.909a6.362,6.362,0,0,1-2.041,1.713A5,5,0,0,1,292.185,85.781Zm.592-1.269a3.517,3.517,0,0,0,1.142-.212,5.187,5.187,0,0,0,1.174-.581,5.41,5.41,0,0,0,1.015-.867,3.256,3.256,0,0,0,.666-1.068l.7-3.4a2.826,2.826,0,0,0-.339-1.068,3.426,3.426,0,0,0-.676-.867,3.271,3.271,0,0,0-.909-.592,2.613,2.613,0,0,0-1.058-.222,3.668,3.668,0,0,0-1.808.476,5.384,5.384,0,0,0-1.5,1.237,6.176,6.176,0,0,0-1.025,1.713,5.085,5.085,0,0,0-.381,1.9,4.414,4.414,0,0,0,.212,1.385,3.305,3.305,0,0,0,.613,1.121,3.1,3.1,0,0,0,.952.761A2.622,2.622,0,0,0,292.777,84.512Z" transform="translate(-206.093 -70.131)" fill="#fff"/>
      <path id="Path_804" data-name="Path 804" d="M331.752,74.948h1.354l-.571,2.644a7.13,7.13,0,0,1,1.872-1.914,4.052,4.052,0,0,1,2.125-.751q.169,0,.286.01c.077.007.151.018.222.032l-.275,1.248a4.935,4.935,0,0,0-2.559.8,5.582,5.582,0,0,0-1.9,2.094l-1.438,6.852h-1.438Z" transform="translate(-234.938 -70.528)" fill="#fff"/>
      <path id="Path_805" data-name="Path 805" d="M353.2,90.285a6.241,6.241,0,0,1-1.586-.179,4.306,4.306,0,0,1-1.184-.5,3.14,3.14,0,0,1-.857-.782,4.1,4.1,0,0,1-.56-1.036l1.015-.7a2.848,2.848,0,0,0,1.311,1.554,4.3,4.3,0,0,0,2.094.5,4.988,4.988,0,0,0,1.48-.222,4.564,4.564,0,0,0,1.322-.656,4.085,4.085,0,0,0,1.036-1.1,4.6,4.6,0,0,0,.624-1.555l.465-2.178a5.812,5.812,0,0,1-.909.951,5.965,5.965,0,0,1-1.079.719,5.759,5.759,0,0,1-1.163.455,4.489,4.489,0,0,1-1.163.159,3.445,3.445,0,0,1-1.618-.37,3.729,3.729,0,0,1-1.205-.994,4.356,4.356,0,0,1-.751-1.449,5.867,5.867,0,0,1-.254-1.734,6.527,6.527,0,0,1,.508-2.516,7.54,7.54,0,0,1,1.364-2.178,6.957,6.957,0,0,1,1.978-1.533,5.072,5.072,0,0,1,2.368-.581,3.23,3.23,0,0,1,2.179.708,5.063,5.063,0,0,1,1.311,1.787l.486-2.305h1.269l-2.347,11.06a5.843,5.843,0,0,1-.846,2.041,5.591,5.591,0,0,1-1.417,1.459,6.221,6.221,0,0,1-1.819.878A7.159,7.159,0,0,1,353.2,90.285Zm1.523-5.773a3.552,3.552,0,0,0,1.226-.233,5,5,0,0,0,1.184-.624,5.544,5.544,0,0,0,.973-.878,3.275,3.275,0,0,0,.613-.994l.719-3.4a3.258,3.258,0,0,0-.36-1.1,3.3,3.3,0,0,0-.666-.867,3.059,3.059,0,0,0-.9-.571,2.726,2.726,0,0,0-1.057-.212,3.743,3.743,0,0,0-1.861.487,5.4,5.4,0,0,0-1.512,1.258,6.165,6.165,0,0,0-1.015,1.713,5.032,5.032,0,0,0-.37,1.85,4.412,4.412,0,0,0,.211,1.385,3.423,3.423,0,0,0,.613,1.131,3,3,0,0,0,.962.772A2.687,2.687,0,0,0,354.722,84.512Z" transform="translate(-248.666 -70.131)" fill="#fff"/>
      <path id="Path_806" data-name="Path 806" d="M397.811,85.781A4.337,4.337,0,0,1,396,85.421a3.759,3.759,0,0,1-1.332-.994,4.466,4.466,0,0,1-.825-1.48,5.645,5.645,0,0,1-.285-1.819,6.493,6.493,0,0,1,.508-2.527,7.1,7.1,0,0,1,1.4-2.157,6.891,6.891,0,0,1,2.1-1.512,6.115,6.115,0,0,1,2.633-.571,4.8,4.8,0,0,1,1.364.19,3.356,3.356,0,0,1,1.121.56,2.627,2.627,0,0,1,.751.931,2.872,2.872,0,0,1,.275,1.279,2.661,2.661,0,0,1-1.438,2.453,9.229,9.229,0,0,1-4.441.825q-.593,0-1.28-.022t-1.491-.084q-.021.17-.032.317c-.007.1-.011.2-.011.3a4.8,4.8,0,0,0,.191,1.364,3.468,3.468,0,0,0,.571,1.142,2.705,2.705,0,0,0,.952.783,2.946,2.946,0,0,0,1.332.285,3.836,3.836,0,0,0,1.036-.148,4.625,4.625,0,0,0,1-.412,4.342,4.342,0,0,0,.878-.645,3.9,3.9,0,0,0,.677-.846l1.184.36a5.64,5.64,0,0,1-.93,1.131,6.039,6.039,0,0,1-1.216.888,6.289,6.289,0,0,1-1.4.571A5.588,5.588,0,0,1,397.811,85.781Zm2.242-10.3a4.326,4.326,0,0,0-1.734.338,5.121,5.121,0,0,0-1.4.888,5.322,5.322,0,0,0-1.036,1.269,6.173,6.173,0,0,0-.634,1.48q.761.043,1.406.074t1.237.032a11.228,11.228,0,0,0,2.115-.169,4.739,4.739,0,0,0,1.4-.465,1.883,1.883,0,0,0,.761-.719,1.856,1.856,0,0,0,.233-.91,1.509,1.509,0,0,0-.7-1.385A3.065,3.065,0,0,0,400.052,75.482Z" transform="translate(-279.89 -70.131)" fill="#fff"/>
    </g>
    <g id="Group_2797" data-name="Group 2797" transform="translate(53.565)">
      <path id="Union_2" data-name="Union 2" d="M194.957,27.46l1.772-8.412-3.246-.675,7.426-9.285-1.8,8.526,3.112.65Z" transform="translate(-193.218 -8.581)" fill="#141e5a"/>
      <path id="Union_2-2" data-name="Union 2" d="M194.163,25.62l1.743-8.336-3.311-.692,7.264-9.2-1.743,8.337,3.307.691Z" transform="translate(-192.596 -7.395)" fill="#94d034"/>
      <path id="Union_2-3" data-name="Union 2" d="M195.907,17.284l-3.311-.692,7.264-9.2Z" transform="translate(-192.596 -7.395)" fill="#d2ff00"/>
      <path id="Union_2-4" data-name="Union 2" d="M201.79,35.269l3.307.691-7.26,9.2Z" transform="translate(-196.27 -26.932)" fill="#509632"/>
    </g>
  </g>
  <text id="ADMIN" transform="translate(58.068 43.989)" fill="#96d232" font-size="13" font-family="Montserrat-SemiBold, Montserrat" font-weight="600"><tspan x="-23" y="0">ADMIN</tspan></text>
</svg>
